M48
; DRILL file {KiCad (6.0.5)} date Thu Sep 15 01:10:38 2022
; FORMAT={-:-/ absolute / inch / decimal}
; #@! TF.CreationDate,2022-09-15T01:10:38+02:00
; #@! TF.GenerationSoftware,Kicad,Pcbnew,(6.0.5)
; #@! TF.FileFunction,Plated,1,2,PTH
FMAT,2
INCH
; #@! TA.AperFunction,Plated,PTH,ViaDrill
T1C0.0157
; #@! TA.AperFunction,Plated,PTH,ComponentDrill
T2C0.0315
; #@! TA.AperFunction,Plated,PTH,ComponentDrill
T3C0.0394
; #@! TA.AperFunction,Plated,PTH,ComponentDrill
T4C0.0433
; #@! TA.AperFunction,Plated,PTH,ComponentDrill
T5C0.0906
%
G90
G05
T1
X1.615Y-3.01
X2.4Y-3.67
X2.5298Y-3.6398
X2.66Y-3.61
X2.72Y-3.6705
X2.8Y-3.64
X2.88Y-3.6095
X2.8856Y-3.3795
X2.8954Y-3.3305
X2.92Y-3.4295
X2.9361Y-3.3101
X2.9508Y-3.46
X2.9723Y-3.2902
X3.0094Y-3.2705
X3.05Y-3.2492
X3.11Y-3.2395
X3.11Y-3.47
X3.15Y-4.0805
X3.175Y-3.2395
X3.23Y-2.5305
X3.23Y-3.2395
X3.23Y-4.05
X3.24Y-3.47
X3.27Y-4.0
X3.2723Y-3.2295
X3.2914Y-3.8682
X3.31Y-2.99
X3.3117Y-3.2098
X3.3506Y-3.1902
X3.3844Y-2.9156
X3.3863Y-3.1693
X3.4074Y-3.8967
X3.4266Y-3.1605
X3.4552Y-3.9179
X3.46Y-4.06
X3.5Y-3.93
X3.56Y-3.78
X3.56Y-3.95
X3.78Y-3.0192
X3.8105Y-3.0497
X3.8105Y-3.62
X3.841Y-3.0802
X3.841Y-3.44
X3.8715Y-3.1107
X3.8715Y-3.47
X3.902Y-3.1412
X3.902Y-3.44
X3.9094Y-3.7394
X3.965Y-2.81
X3.965Y-3.01
X4.06Y-3.0497
X4.38Y-3.77
X4.44Y-3.285
X4.54Y-3.4202
X4.55Y-2.46
X4.6159Y-3.3895
X4.74Y-3.3895
X4.88Y-3.785
X4.88Y-3.905
X5.02Y-2.96
X5.03Y-3.38
X5.05Y-2.9295
X5.195Y-4.065
X5.475Y-4.065
X5.485Y-3.315
X5.6Y-3.06
X5.7225Y-3.2825
X5.875Y-3.13
X5.97Y-4.06
X5.99Y-4.1
X6.09Y-4.34
X6.2Y-4.5992
X6.2798Y-4.0102
X6.48Y-4.4305
X6.6316Y-4.4316
X6.66Y-2.625
X6.675Y-3.845
X6.91Y-4.075
X7.015Y-3.97
X7.38Y-2.5
X7.4Y-4.34
X7.825Y-2.0
T2
X1.14Y-2.72
X1.14Y-3.02
X1.2998Y-2.6252
X1.2998Y-2.7252
X1.2998Y-2.8252
X1.2998Y-2.9252
X1.2998Y-3.0252
X1.2998Y-3.1252
X1.2998Y-3.2252
X1.2998Y-3.3252
X1.2998Y-3.4252
X1.2998Y-3.5252
X1.2998Y-3.6252
X1.2998Y-3.7252
X1.2998Y-3.8252
X1.2998Y-3.9252
X1.2998Y-4.0252
X1.2998Y-4.1252
X1.2998Y-4.2252
X1.2998Y-4.3252
X1.2998Y-4.4252
X1.2998Y-4.5252
X1.8998Y-2.6252
X1.8998Y-2.7252
X1.8998Y-2.8252
X1.8998Y-2.9252
X1.8998Y-3.0252
X1.8998Y-3.1252
X1.8998Y-3.2252
X1.8998Y-3.3252
X1.8998Y-3.4252
X1.8998Y-3.5252
X1.8998Y-3.6252
X1.8998Y-3.7252
X1.8998Y-3.8252
X1.8998Y-3.9252
X1.8998Y-4.0252
X1.8998Y-4.1252
X1.8998Y-4.2252
X1.8998Y-4.3252
X1.8998Y-4.4252
X1.8998Y-4.5252
X2.83Y-2.36
X2.83Y-2.66
X2.8498Y-4.2254
X2.8498Y-4.5254
X2.93Y-2.36
X2.93Y-2.66
X2.9498Y-4.2254
X2.9498Y-4.5254
X3.03Y-2.36
X3.03Y-2.66
X3.0498Y-4.2254
X3.0498Y-4.5254
X3.13Y-2.36
X3.13Y-2.66
X3.1498Y-4.2254
X3.1498Y-4.5254
X3.23Y-2.36
X3.23Y-2.66
X3.2498Y-4.2254
X3.2498Y-4.5254
X3.33Y-2.36
X3.33Y-2.66
X3.3498Y-4.2254
X3.3498Y-4.5254
X3.43Y-2.36
X3.43Y-2.66
X3.4498Y-4.2254
X3.4498Y-4.5254
X3.53Y-2.36
X3.53Y-2.66
X3.5498Y-4.2254
X3.5498Y-4.5254
X3.6498Y-4.2254
X3.6498Y-4.5254
X3.7498Y-4.2254
X3.7498Y-4.5254
X4.175Y-3.025
X4.175Y-3.625
X4.275Y-3.025
X4.275Y-3.625
X4.3498Y-4.2254
X4.3498Y-4.5254
X4.375Y-3.025
X4.375Y-3.625
X4.44Y-2.38
X4.44Y-2.68
X4.4498Y-4.2254
X4.4498Y-4.5254
X4.475Y-3.025
X4.475Y-3.625
X4.5498Y-4.2254
X4.5498Y-4.5254
X4.575Y-3.025
X4.575Y-3.625
X4.6498Y-4.2254
X4.6498Y-4.5254
X4.675Y-3.025
X4.675Y-3.625
X4.74Y-2.38
X4.74Y-2.68
X4.7498Y-4.2254
X4.7498Y-4.5254
X4.775Y-3.025
X4.775Y-3.625
X4.8498Y-4.2254
X4.8498Y-4.5254
X4.875Y-3.025
X4.875Y-3.625
X4.9498Y-4.2254
X4.9498Y-4.5254
X4.975Y-3.025
X4.975Y-3.625
X5.0498Y-4.2254
X5.0498Y-4.5254
X5.075Y-3.025
X5.075Y-3.625
X5.1498Y-4.2254
X5.1498Y-4.5254
X5.175Y-3.025
X5.175Y-3.625
X5.2498Y-4.2254
X5.2498Y-4.5254
X5.275Y-3.025
X5.275Y-3.625
X5.375Y-3.025
X5.375Y-3.625
X5.475Y-3.025
X5.475Y-3.625
X5.7171Y-2.3893
X5.8498Y-4.2254
X5.8498Y-4.5254
X5.9498Y-4.2254
X5.9498Y-4.5254
X6.0171Y-2.3893
X6.0498Y-4.2254
X6.0498Y-4.5254
X6.1498Y-4.2254
X6.1498Y-4.5254
X6.2248Y-3.0248
X6.2248Y-3.6248
X6.2371Y-2.4
X6.2498Y-4.2254
X6.2498Y-4.5254
X6.3248Y-3.0248
X6.3248Y-3.6248
X6.3498Y-4.2254
X6.3498Y-4.5254
X6.4248Y-3.0248
X6.4248Y-3.6248
X6.4498Y-4.2254
X6.4498Y-4.5254
X6.5248Y-3.0248
X6.5248Y-3.6248
X6.5371Y-2.4
X6.5498Y-4.2254
X6.5498Y-4.5254
X6.6248Y-3.0248
X6.6248Y-3.6248
X6.6498Y-4.2254
X6.6498Y-4.5254
X6.7248Y-3.0248
X6.7248Y-3.6248
X6.7498Y-4.2254
X6.7498Y-4.5254
X6.8248Y-3.0248
X6.8248Y-3.6248
X6.9248Y-3.0248
X6.9248Y-3.6248
X7.0248Y-3.0248
X7.0248Y-3.6248
X7.1248Y-3.0248
X7.1248Y-3.6248
X7.2248Y-3.0248
X7.2248Y-3.6248
X7.3088Y-4.2254
X7.3088Y-4.5254
X7.3248Y-3.0248
X7.3248Y-3.6248
X7.4088Y-4.2254
X7.4088Y-4.5254
X7.4248Y-3.0248
X7.4248Y-3.6248
X7.5088Y-4.2254
X7.5088Y-4.5254
X7.5248Y-3.0248
X7.5248Y-3.6248
X7.6088Y-4.2254
X7.6088Y-4.5254
X7.6248Y-3.0248
X7.6248Y-3.6248
X7.7088Y-4.2254
X7.7088Y-4.5254
X7.7248Y-3.0248
X7.7248Y-3.6248
X7.8088Y-4.2254
X7.8088Y-4.5254
X7.8248Y-3.0248
X7.8248Y-3.6248
X7.9088Y-4.2254
X7.9088Y-4.5254
X7.9248Y-3.0248
X7.9248Y-3.6248
X8.0088Y-4.2254
X8.0088Y-4.5254
X8.0248Y-3.0248
X8.0248Y-3.6248
X8.1088Y-4.2254
X8.1088Y-4.5254
X8.1248Y-3.0248
X8.1248Y-3.6248
X8.2088Y-4.2254
X8.2088Y-4.5254
T3
X3.4Y-1.8
X3.5Y-1.8
X3.6Y-1.8
X3.7Y-1.8
X3.8Y-1.8
X3.9Y-1.8
X4.0Y-1.8
X4.1Y-1.8
X4.2Y-1.8
X4.3Y-1.8
X4.4Y-1.8
X4.5Y-1.8
X4.6Y-1.8
X4.7Y-1.8
X4.8Y-1.8
X4.9Y-1.8
T4
X2.2171Y-1.9072
X2.222Y-2.6314
X2.222Y-2.8086
X2.3171Y-1.9072
X2.4171Y-1.9072
X2.478Y-2.6314
X2.478Y-2.8086
X5.8461Y-1.9907
X5.8461Y-2.0891
X5.9288Y-1.9907
X6.0312Y-1.9907
X6.1139Y-1.9907
X6.1139Y-2.0891
X6.6961Y-1.9907
X6.6961Y-2.0891
X6.7788Y-1.9907
X6.8812Y-1.9907
X6.9639Y-1.9907
X6.9639Y-2.0891
T5
X5.7143Y-1.8726
X5.98Y-1.8411
X6.2457Y-1.8726
X6.5643Y-1.8726
X6.83Y-1.8411
X7.0957Y-1.8726
T3
G00X1.3466Y-2.1391
M15
G01X1.3466Y-2.0525
M16
G05
G00X1.5789Y-1.962
M15
G01X1.4923Y-1.962
M16
G05
G00X1.5868Y-2.21
M15
G01X1.4844Y-2.21
M16
G05
T0
M30
