%TF.GenerationSoftware,KiCad,Pcbnew,(6.0.5)*%
%TF.CreationDate,2022-09-15T01:10:35+02:00*%
%TF.ProjectId,65816 computer,36353831-3620-4636-9f6d-70757465722e,rev?*%
%TF.SameCoordinates,Original*%
%TF.FileFunction,Soldermask,Bot*%
%TF.FilePolarity,Negative*%
%FSLAX46Y46*%
G04 Gerber Fmt 4.6, Leading zero omitted, Abs format (unit mm)*
G04 Created by KiCad (PCBNEW (6.0.5)) date 2022-09-15 01:10:35*
%MOMM*%
%LPD*%
G01*
G04 APERTURE LIST*
%ADD10R,1.600000X2.400000*%
%ADD11O,1.600000X2.400000*%
%ADD12R,4.600000X2.000000*%
%ADD13O,4.200000X2.000000*%
%ADD14O,2.000000X4.200000*%
%ADD15C,2.000000*%
%ADD16C,3.000000*%
%ADD17C,1.600000*%
%ADD18O,1.600000X1.600000*%
%ADD19R,2.400000X1.600000*%
%ADD20O,2.400000X1.600000*%
%ADD21R,1.600000X1.600000*%
%ADD22C,1.650000*%
%ADD23C,3.450000*%
%ADD24R,1.700000X1.700000*%
%ADD25O,1.700000X1.700000*%
%ADD26R,1.905000X2.000000*%
%ADD27O,1.905000X2.000000*%
G04 APERTURE END LIST*
D10*
%TO.C,U10*%
X71882000Y-67564000D03*
D11*
X74422000Y-67564000D03*
X76962000Y-67564000D03*
X79502000Y-67564000D03*
X82042000Y-67564000D03*
X84582000Y-67564000D03*
X87122000Y-67564000D03*
X89662000Y-67564000D03*
X89662000Y-59944000D03*
X87122000Y-59944000D03*
X84582000Y-59944000D03*
X82042000Y-59944000D03*
X79502000Y-59944000D03*
X76962000Y-59944000D03*
X74422000Y-59944000D03*
X71882000Y-59944000D03*
%TD*%
D12*
%TO.C,J1*%
X39004000Y-56134000D03*
D13*
X39004000Y-49834000D03*
D14*
X34204000Y-53234000D03*
%TD*%
D15*
%TO.C,SW1*%
X56440000Y-66838000D03*
X62940000Y-66838000D03*
X56440000Y-71338000D03*
X62940000Y-71338000D03*
%TD*%
D10*
%TO.C,U4*%
X133345000Y-107325000D03*
D11*
X130805000Y-107325000D03*
X128265000Y-107325000D03*
X125725000Y-107325000D03*
X123185000Y-107325000D03*
X120645000Y-107325000D03*
X118105000Y-107325000D03*
X115565000Y-107325000D03*
X113025000Y-107325000D03*
X110485000Y-107325000D03*
X110485000Y-114945000D03*
X113025000Y-114945000D03*
X115565000Y-114945000D03*
X118105000Y-114945000D03*
X120645000Y-114945000D03*
X123185000Y-114945000D03*
X125725000Y-114945000D03*
X128265000Y-114945000D03*
X130805000Y-114945000D03*
X133345000Y-114945000D03*
%TD*%
D16*
%TO.C,REF\u002A\u002A*%
X209804000Y-45466000D03*
X209804000Y-45466000D03*
%TD*%
D17*
%TO.C,R2*%
X158422559Y-60960000D03*
D18*
X166042559Y-60960000D03*
%TD*%
D10*
%TO.C,U8*%
X95245000Y-107325000D03*
D11*
X92705000Y-107325000D03*
X90165000Y-107325000D03*
X87625000Y-107325000D03*
X85085000Y-107325000D03*
X82545000Y-107325000D03*
X80005000Y-107325000D03*
X77465000Y-107325000D03*
X74925000Y-107325000D03*
X72385000Y-107325000D03*
X72385000Y-114945000D03*
X74925000Y-114945000D03*
X77465000Y-114945000D03*
X80005000Y-114945000D03*
X82545000Y-114945000D03*
X85085000Y-114945000D03*
X87625000Y-114945000D03*
X90165000Y-114945000D03*
X92705000Y-114945000D03*
X95245000Y-114945000D03*
%TD*%
D10*
%TO.C,U12*%
X208502480Y-107325000D03*
D11*
X205962480Y-107325000D03*
X203422480Y-107325000D03*
X200882480Y-107325000D03*
X198342480Y-107325000D03*
X195802480Y-107325000D03*
X193262480Y-107325000D03*
X190722480Y-107325000D03*
X188182480Y-107325000D03*
X185642480Y-107325000D03*
X185642480Y-114945000D03*
X188182480Y-114945000D03*
X190722480Y-114945000D03*
X193262480Y-114945000D03*
X195802480Y-114945000D03*
X198342480Y-114945000D03*
X200882480Y-114945000D03*
X203422480Y-114945000D03*
X205962480Y-114945000D03*
X208502480Y-114945000D03*
%TD*%
D19*
%TO.C,U6*%
X33015000Y-66680000D03*
D20*
X33015000Y-69220000D03*
X33015000Y-71760000D03*
X33015000Y-74300000D03*
X33015000Y-76840000D03*
X33015000Y-79380000D03*
X33015000Y-81920000D03*
X33015000Y-84460000D03*
X33015000Y-87000000D03*
X33015000Y-89540000D03*
X33015000Y-92080000D03*
X33015000Y-94620000D03*
X33015000Y-97160000D03*
X33015000Y-99700000D03*
X33015000Y-102240000D03*
X33015000Y-104780000D03*
X33015000Y-107320000D03*
X33015000Y-109860000D03*
X33015000Y-112400000D03*
X33015000Y-114940000D03*
X48255000Y-114940000D03*
X48255000Y-112400000D03*
X48255000Y-109860000D03*
X48255000Y-107320000D03*
X48255000Y-104780000D03*
X48255000Y-102240000D03*
X48255000Y-99700000D03*
X48255000Y-97160000D03*
X48255000Y-94620000D03*
X48255000Y-92080000D03*
X48255000Y-89540000D03*
X48255000Y-87000000D03*
X48255000Y-84460000D03*
X48255000Y-81920000D03*
X48255000Y-79380000D03*
X48255000Y-76840000D03*
X48255000Y-74300000D03*
X48255000Y-71760000D03*
X48255000Y-69220000D03*
X48255000Y-66680000D03*
%TD*%
D16*
%TO.C,REF\u002A\u002A*%
X28448000Y-45466000D03*
X28448000Y-45466000D03*
%TD*%
D10*
%TO.C,U7*%
X206370000Y-76830000D03*
D11*
X203830000Y-76830000D03*
X201290000Y-76830000D03*
X198750000Y-76830000D03*
X196210000Y-76830000D03*
X193670000Y-76830000D03*
X191130000Y-76830000D03*
X188590000Y-76830000D03*
X186050000Y-76830000D03*
X183510000Y-76830000D03*
X180970000Y-76830000D03*
X178430000Y-76830000D03*
X175890000Y-76830000D03*
X173350000Y-76830000D03*
X170810000Y-76830000D03*
X168270000Y-76830000D03*
X165730000Y-76830000D03*
X163190000Y-76830000D03*
X160650000Y-76830000D03*
X158110000Y-76830000D03*
X158110000Y-92070000D03*
X160650000Y-92070000D03*
X163190000Y-92070000D03*
X165730000Y-92070000D03*
X168270000Y-92070000D03*
X170810000Y-92070000D03*
X173350000Y-92070000D03*
X175890000Y-92070000D03*
X178430000Y-92070000D03*
X180970000Y-92070000D03*
X183510000Y-92070000D03*
X186050000Y-92070000D03*
X188590000Y-92070000D03*
X191130000Y-92070000D03*
X193670000Y-92070000D03*
X196210000Y-92070000D03*
X198750000Y-92070000D03*
X201290000Y-92070000D03*
X203830000Y-92070000D03*
X206370000Y-92070000D03*
%TD*%
D21*
%TO.C,X1*%
X120396000Y-68072000D03*
D17*
X120396000Y-60452000D03*
X112776000Y-60452000D03*
X112776000Y-68072000D03*
%TD*%
D22*
%TO.C,J2*%
X172182000Y-50564000D03*
X174782000Y-50564000D03*
X170082000Y-50564000D03*
X176882000Y-50564000D03*
X170082000Y-53064000D03*
X176882000Y-53064000D03*
D23*
X166732000Y-47564000D03*
X173482000Y-46764000D03*
X180232000Y-47564000D03*
%TD*%
D24*
%TO.C,J5*%
X86360000Y-45720000D03*
D25*
X88900000Y-45720000D03*
X91440000Y-45720000D03*
X93980000Y-45720000D03*
X96520000Y-45720000D03*
X99060000Y-45720000D03*
X101600000Y-45720000D03*
X104140000Y-45720000D03*
X106680000Y-45720000D03*
X109220000Y-45720000D03*
X111760000Y-45720000D03*
X114300000Y-45720000D03*
X116840000Y-45720000D03*
X119380000Y-45720000D03*
X121920000Y-45720000D03*
X124460000Y-45720000D03*
%TD*%
D10*
%TO.C,U11*%
X139065000Y-76835000D03*
D11*
X136525000Y-76835000D03*
X133985000Y-76835000D03*
X131445000Y-76835000D03*
X128905000Y-76835000D03*
X126365000Y-76835000D03*
X123825000Y-76835000D03*
X121285000Y-76835000D03*
X118745000Y-76835000D03*
X116205000Y-76835000D03*
X113665000Y-76835000D03*
X111125000Y-76835000D03*
X108585000Y-76835000D03*
X106045000Y-76835000D03*
X106045000Y-92075000D03*
X108585000Y-92075000D03*
X111125000Y-92075000D03*
X113665000Y-92075000D03*
X116205000Y-92075000D03*
X118745000Y-92075000D03*
X121285000Y-92075000D03*
X123825000Y-92075000D03*
X126365000Y-92075000D03*
X128905000Y-92075000D03*
X131445000Y-92075000D03*
X133985000Y-92075000D03*
X136525000Y-92075000D03*
X139065000Y-92075000D03*
%TD*%
D16*
%TO.C,REF\u002A\u002A*%
X28448000Y-118618000D03*
X28448000Y-118618000D03*
%TD*%
D10*
%TO.C,U13*%
X171445000Y-107325000D03*
D11*
X168905000Y-107325000D03*
X166365000Y-107325000D03*
X163825000Y-107325000D03*
X161285000Y-107325000D03*
X158745000Y-107325000D03*
X156205000Y-107325000D03*
X153665000Y-107325000D03*
X151125000Y-107325000D03*
X148585000Y-107325000D03*
X148585000Y-114945000D03*
X151125000Y-114945000D03*
X153665000Y-114945000D03*
X156205000Y-114945000D03*
X158745000Y-114945000D03*
X161285000Y-114945000D03*
X163825000Y-114945000D03*
X166365000Y-114945000D03*
X168905000Y-114945000D03*
X171445000Y-114945000D03*
%TD*%
D15*
%TO.C,REF\u002A\u002A*%
X210312000Y-119126000D03*
%TD*%
D17*
%TO.C,R1*%
X145214559Y-60688978D03*
D18*
X152834559Y-60688978D03*
%TD*%
D22*
%TO.C,J3*%
X150592000Y-50564000D03*
X153192000Y-50564000D03*
X148492000Y-50564000D03*
X155292000Y-50564000D03*
X148492000Y-53064000D03*
X155292000Y-53064000D03*
D23*
X145142000Y-47564000D03*
X151892000Y-46764000D03*
X158642000Y-47564000D03*
%TD*%
D17*
%TO.C,R3*%
X28956000Y-76708000D03*
D18*
X28956000Y-69088000D03*
%TD*%
D26*
%TO.C,U1*%
X56314559Y-48443000D03*
D27*
X58854559Y-48443000D03*
X61394559Y-48443000D03*
%TD*%
M02*
