%TF.GenerationSoftware,KiCad,Pcbnew,(6.0.5)*%
%TF.CreationDate,2022-09-15T01:10:35+02:00*%
%TF.ProjectId,65816 computer,36353831-3620-4636-9f6d-70757465722e,rev?*%
%TF.SameCoordinates,Original*%
%TF.FileFunction,Copper,L1,Top*%
%TF.FilePolarity,Positive*%
%FSLAX46Y46*%
G04 Gerber Fmt 4.6, Leading zero omitted, Abs format (unit mm)*
G04 Created by KiCad (PCBNEW (6.0.5)) date 2022-09-15 01:10:35*
%MOMM*%
%LPD*%
G01*
G04 APERTURE LIST*
G04 Aperture macros list*
%AMRoundRect*
0 Rectangle with rounded corners*
0 $1 Rounding radius*
0 $2 $3 $4 $5 $6 $7 $8 $9 X,Y pos of 4 corners*
0 Add a 4 corners polygon primitive as box body*
4,1,4,$2,$3,$4,$5,$6,$7,$8,$9,$2,$3,0*
0 Add four circle primitives for the rounded corners*
1,1,$1+$1,$2,$3*
1,1,$1+$1,$4,$5*
1,1,$1+$1,$6,$7*
1,1,$1+$1,$8,$9*
0 Add four rect primitives between the rounded corners*
20,1,$1+$1,$2,$3,$4,$5,0*
20,1,$1+$1,$4,$5,$6,$7,0*
20,1,$1+$1,$6,$7,$8,$9,0*
20,1,$1+$1,$8,$9,$2,$3,0*%
G04 Aperture macros list end*
%TA.AperFunction,SMDPad,CuDef*%
%ADD10RoundRect,0.250000X-0.650000X0.412500X-0.650000X-0.412500X0.650000X-0.412500X0.650000X0.412500X0*%
%TD*%
%TA.AperFunction,SMDPad,CuDef*%
%ADD11RoundRect,0.250000X-0.412500X-0.650000X0.412500X-0.650000X0.412500X0.650000X-0.412500X0.650000X0*%
%TD*%
%TA.AperFunction,ComponentPad*%
%ADD12R,1.600000X2.400000*%
%TD*%
%TA.AperFunction,ComponentPad*%
%ADD13O,1.600000X2.400000*%
%TD*%
%TA.AperFunction,ComponentPad*%
%ADD14R,4.600000X2.000000*%
%TD*%
%TA.AperFunction,ComponentPad*%
%ADD15O,4.200000X2.000000*%
%TD*%
%TA.AperFunction,ComponentPad*%
%ADD16O,2.000000X4.200000*%
%TD*%
%TA.AperFunction,SMDPad,CuDef*%
%ADD17RoundRect,0.250000X0.650000X-0.412500X0.650000X0.412500X-0.650000X0.412500X-0.650000X-0.412500X0*%
%TD*%
%TA.AperFunction,ComponentPad*%
%ADD18C,2.000000*%
%TD*%
%TA.AperFunction,SMDPad,CuDef*%
%ADD19RoundRect,0.137500X-0.137500X0.625000X-0.137500X-0.625000X0.137500X-0.625000X0.137500X0.625000X0*%
%TD*%
%TA.AperFunction,SMDPad,CuDef*%
%ADD20R,2.200000X1.200000*%
%TD*%
%TA.AperFunction,SMDPad,CuDef*%
%ADD21R,6.400000X5.800000*%
%TD*%
%TA.AperFunction,ComponentPad*%
%ADD22C,1.600000*%
%TD*%
%TA.AperFunction,ComponentPad*%
%ADD23O,1.600000X1.600000*%
%TD*%
%TA.AperFunction,SMDPad,CuDef*%
%ADD24RoundRect,0.250000X0.412500X0.650000X-0.412500X0.650000X-0.412500X-0.650000X0.412500X-0.650000X0*%
%TD*%
%TA.AperFunction,ComponentPad*%
%ADD25R,2.400000X1.600000*%
%TD*%
%TA.AperFunction,ComponentPad*%
%ADD26O,2.400000X1.600000*%
%TD*%
%TA.AperFunction,SMDPad,CuDef*%
%ADD27RoundRect,0.150000X-0.587500X-0.150000X0.587500X-0.150000X0.587500X0.150000X-0.587500X0.150000X0*%
%TD*%
%TA.AperFunction,ComponentPad*%
%ADD28R,1.600000X1.600000*%
%TD*%
%TA.AperFunction,ComponentPad*%
%ADD29C,1.650000*%
%TD*%
%TA.AperFunction,ComponentPad*%
%ADD30C,3.450000*%
%TD*%
%TA.AperFunction,ComponentPad*%
%ADD31R,1.700000X1.700000*%
%TD*%
%TA.AperFunction,ComponentPad*%
%ADD32O,1.700000X1.700000*%
%TD*%
%TA.AperFunction,SMDPad,CuDef*%
%ADD33RoundRect,0.150000X-0.150000X0.825000X-0.150000X-0.825000X0.150000X-0.825000X0.150000X0.825000X0*%
%TD*%
%TA.AperFunction,SMDPad,CuDef*%
%ADD34R,0.800000X1.500000*%
%TD*%
%TA.AperFunction,SMDPad,CuDef*%
%ADD35R,1.450000X2.000000*%
%TD*%
%TA.AperFunction,ComponentPad*%
%ADD36R,1.905000X2.000000*%
%TD*%
%TA.AperFunction,ComponentPad*%
%ADD37O,1.905000X2.000000*%
%TD*%
%TA.AperFunction,ViaPad*%
%ADD38C,0.800000*%
%TD*%
%TA.AperFunction,Conductor*%
%ADD39C,0.250000*%
%TD*%
%TA.AperFunction,Conductor*%
%ADD40C,1.000000*%
%TD*%
%TA.AperFunction,Conductor*%
%ADD41C,1.500000*%
%TD*%
%TA.AperFunction,Conductor*%
%ADD42C,0.500000*%
%TD*%
G04 APERTURE END LIST*
D10*
%TO.P,C19,1*%
%TO.N,+5V*%
X97038000Y-64741500D03*
%TO.P,C19,2*%
%TO.N,GNDD*%
X97038000Y-67866500D03*
%TD*%
D11*
%TO.P,C5,1*%
%TO.N,+5V*%
X77812500Y-94615000D03*
%TO.P,C5,2*%
%TO.N,GNDD*%
X80937500Y-94615000D03*
%TD*%
D12*
%TO.P,U10,1,~{Mr}*%
%TO.N,+5V*%
X71882000Y-67564000D03*
D13*
%TO.P,U10,2,Q0*%
%TO.N,CLK*%
X74422000Y-67564000D03*
%TO.P,U10,3,~{Q0}*%
%TO.N,~{CLK}*%
X76962000Y-67564000D03*
%TO.P,U10,4,D0*%
X79502000Y-67564000D03*
%TO.P,U10,5,D1*%
%TO.N,GNDD*%
X82042000Y-67564000D03*
%TO.P,U10,6,~{Q1}*%
%TO.N,unconnected-(U10-Pad6)*%
X84582000Y-67564000D03*
%TO.P,U10,7,Q1*%
%TO.N,unconnected-(U10-Pad7)*%
X87122000Y-67564000D03*
%TO.P,U10,8,GND*%
%TO.N,GNDD*%
X89662000Y-67564000D03*
%TO.P,U10,9,Cp*%
%TO.N,/CLK\u002A2*%
X89662000Y-59944000D03*
%TO.P,U10,10,Q2*%
%TO.N,unconnected-(U10-Pad10)*%
X87122000Y-59944000D03*
%TO.P,U10,11,~{Q2}*%
%TO.N,unconnected-(U10-Pad11)*%
X84582000Y-59944000D03*
%TO.P,U10,12,D2*%
%TO.N,GNDD*%
X82042000Y-59944000D03*
%TO.P,U10,13,D3*%
X79502000Y-59944000D03*
%TO.P,U10,14,~{Q3}*%
%TO.N,unconnected-(U10-Pad14)*%
X76962000Y-59944000D03*
%TO.P,U10,15,Q3*%
%TO.N,unconnected-(U10-Pad15)*%
X74422000Y-59944000D03*
%TO.P,U10,16,VCC*%
%TO.N,+5V*%
X71882000Y-59944000D03*
%TD*%
D11*
%TO.P,C1,1*%
%TO.N,+9V*%
X54392059Y-52253000D03*
%TO.P,C1,2*%
%TO.N,GNDD*%
X57517059Y-52253000D03*
%TD*%
D14*
%TO.P,J1,1*%
%TO.N,+9V*%
X39004000Y-56134000D03*
D15*
%TO.P,J1,2*%
%TO.N,GNDD*%
X39004000Y-49834000D03*
D16*
%TO.P,J1,MP,MountPin*%
%TO.N,unconnected-(J1-PadMP)*%
X34204000Y-53234000D03*
%TD*%
D17*
%TO.P,C16,1*%
%TO.N,+5V*%
X64770000Y-110147500D03*
%TO.P,C16,2*%
%TO.N,GNDD*%
X64770000Y-107022500D03*
%TD*%
D18*
%TO.P,SW1,1,1*%
%TO.N,/RESB*%
X56440000Y-66838000D03*
X62940000Y-66838000D03*
%TO.P,SW1,2,2*%
%TO.N,GNDD*%
X56440000Y-71338000D03*
X62940000Y-71338000D03*
%TD*%
D10*
%TO.P,C8,1*%
%TO.N,+5V*%
X74549000Y-72097500D03*
%TO.P,C8,2*%
%TO.N,GNDD*%
X74549000Y-75222500D03*
%TD*%
D17*
%TO.P,C15,1*%
%TO.N,+5V*%
X68580000Y-110147500D03*
%TO.P,C15,2*%
%TO.N,GNDD*%
X68580000Y-107022500D03*
%TD*%
D12*
%TO.P,U4,1,OE*%
%TO.N,GNDD*%
X133345000Y-107325000D03*
D13*
%TO.P,U4,2,O0*%
%TO.N,/A16*%
X130805000Y-107325000D03*
%TO.P,U4,3,D0*%
%TO.N,/CPU_D0*%
X128265000Y-107325000D03*
%TO.P,U4,4,D1*%
%TO.N,/CPU_D1*%
X125725000Y-107325000D03*
%TO.P,U4,5,O1*%
%TO.N,/A17*%
X123185000Y-107325000D03*
%TO.P,U4,6,O2*%
%TO.N,/A18*%
X120645000Y-107325000D03*
%TO.P,U4,7,D2*%
%TO.N,/CPU_D2*%
X118105000Y-107325000D03*
%TO.P,U4,8,D3*%
%TO.N,GNDD*%
X115565000Y-107325000D03*
%TO.P,U4,9,O3*%
%TO.N,unconnected-(U4-Pad9)*%
X113025000Y-107325000D03*
%TO.P,U4,10,GND*%
%TO.N,GNDD*%
X110485000Y-107325000D03*
%TO.P,U4,11,LE*%
%TO.N,BANK_LATCH_CLK*%
X110485000Y-114945000D03*
%TO.P,U4,12,O4*%
%TO.N,unconnected-(U4-Pad12)*%
X113025000Y-114945000D03*
%TO.P,U4,13,D4*%
%TO.N,GNDD*%
X115565000Y-114945000D03*
%TO.P,U4,14,D5*%
X118105000Y-114945000D03*
%TO.P,U4,15,O5*%
%TO.N,unconnected-(U4-Pad15)*%
X120645000Y-114945000D03*
%TO.P,U4,16,O6*%
%TO.N,unconnected-(U4-Pad16)*%
X123185000Y-114945000D03*
%TO.P,U4,17,D6*%
%TO.N,GNDD*%
X125725000Y-114945000D03*
%TO.P,U4,18,D7*%
X128265000Y-114945000D03*
%TO.P,U4,19,O7*%
%TO.N,unconnected-(U4-Pad19)*%
X130805000Y-114945000D03*
%TO.P,U4,20,VCC*%
%TO.N,+5V*%
X133345000Y-114945000D03*
%TD*%
D19*
%TO.P,U5,1*%
%TO.N,N/C*%
X87775000Y-78862500D03*
%TO.P,U5,2*%
X86975000Y-78862500D03*
%TO.P,U5,3,A0*%
%TO.N,/A0*%
X86175000Y-78862500D03*
%TO.P,U5,4,A1*%
%TO.N,/A1*%
X85375000Y-78862500D03*
%TO.P,U5,5,A2*%
%TO.N,/A2*%
X84575000Y-78862500D03*
%TO.P,U5,6,A3*%
%TO.N,/A3*%
X83775000Y-78862500D03*
%TO.P,U5,7,A4*%
%TO.N,/A4*%
X82975000Y-78862500D03*
%TO.P,U5,8,~{CE}*%
%TO.N,~{RAM}*%
X82175000Y-78862500D03*
%TO.P,U5,9,D0*%
%TO.N,/D0*%
X81375000Y-78862500D03*
%TO.P,U5,10,D1*%
%TO.N,/D1*%
X80575000Y-78862500D03*
%TO.P,U5,11,VCC*%
%TO.N,+5V*%
X79775000Y-78862500D03*
%TO.P,U5,12,GND*%
%TO.N,GNDD*%
X78975000Y-78862500D03*
%TO.P,U5,13,D2*%
%TO.N,/D2*%
X78175000Y-78862500D03*
%TO.P,U5,14,D3*%
%TO.N,/D3*%
X77375000Y-78862500D03*
%TO.P,U5,15,~{WE}*%
%TO.N,/RWB*%
X76575000Y-78862500D03*
%TO.P,U5,16,A5*%
%TO.N,/A5*%
X75775000Y-78862500D03*
%TO.P,U5,17,A6*%
%TO.N,/A6*%
X74975000Y-78862500D03*
%TO.P,U5,18,A7*%
%TO.N,/A7*%
X74175000Y-78862500D03*
%TO.P,U5,19,A8*%
%TO.N,/A8*%
X73375000Y-78862500D03*
%TO.P,U5,20,A9*%
%TO.N,/A9*%
X72575000Y-78862500D03*
%TO.P,U5,21*%
%TO.N,N/C*%
X71775000Y-78862500D03*
%TO.P,U5,22*%
X70975000Y-78862500D03*
%TO.P,U5,23*%
X70975000Y-90037500D03*
%TO.P,U5,24*%
X71775000Y-90037500D03*
%TO.P,U5,25*%
X72575000Y-90037500D03*
%TO.P,U5,26,A10*%
%TO.N,/A10*%
X73375000Y-90037500D03*
%TO.P,U5,27,A11*%
%TO.N,/A11*%
X74175000Y-90037500D03*
%TO.P,U5,28,A12*%
%TO.N,/A12*%
X74975000Y-90037500D03*
%TO.P,U5,29,A13*%
%TO.N,/A13*%
X75775000Y-90037500D03*
%TO.P,U5,30,A14*%
%TO.N,/A14*%
X76575000Y-90037500D03*
%TO.P,U5,31,D4*%
%TO.N,/D4*%
X77375000Y-90037500D03*
%TO.P,U5,32,D5*%
%TO.N,/D5*%
X78175000Y-90037500D03*
%TO.P,U5,33,VCC*%
%TO.N,+5V*%
X78975000Y-90037500D03*
%TO.P,U5,34,GND*%
%TO.N,GNDD*%
X79775000Y-90037500D03*
%TO.P,U5,35,D6*%
%TO.N,/D6*%
X80575000Y-90037500D03*
%TO.P,U5,36,D7*%
%TO.N,/D7*%
X81375000Y-90037500D03*
%TO.P,U5,37,~{OE}*%
%TO.N,GNDD*%
X82175000Y-90037500D03*
%TO.P,U5,38,A15*%
%TO.N,/A15*%
X82975000Y-90037500D03*
%TO.P,U5,39,A16*%
%TO.N,/A16*%
X83775000Y-90037500D03*
%TO.P,U5,40,A17*%
%TO.N,/A17*%
X84575000Y-90037500D03*
%TO.P,U5,41,A18*%
%TO.N,/A18*%
X85375000Y-90037500D03*
%TO.P,U5,42*%
%TO.N,N/C*%
X86175000Y-90037500D03*
%TO.P,U5,43*%
X86975000Y-90037500D03*
%TO.P,U5,44*%
X87775000Y-90037500D03*
%TD*%
D20*
%TO.P,U3,1,VI*%
%TO.N,+9V*%
X180544000Y-68828000D03*
D21*
%TO.P,U3,2,GND*%
%TO.N,GNDD*%
X174244000Y-66548000D03*
D20*
%TO.P,U3,3,VO*%
%TO.N,+3V3*%
X180544000Y-64268000D03*
%TD*%
D22*
%TO.P,R2,1*%
%TO.N,GNDD*%
X158422559Y-60960000D03*
D23*
%TO.P,R2,2*%
%TO.N,/KEYBOARD_DATA*%
X166042559Y-60960000D03*
%TD*%
D11*
%TO.P,C17,1*%
%TO.N,+5V*%
X103197500Y-73025000D03*
%TO.P,C17,2*%
%TO.N,GNDD*%
X106322500Y-73025000D03*
%TD*%
D12*
%TO.P,U8,1,A->B*%
%TO.N,/RWB*%
X95245000Y-107325000D03*
D13*
%TO.P,U8,2,A0*%
%TO.N,/D0*%
X92705000Y-107325000D03*
%TO.P,U8,3,A1*%
%TO.N,/D1*%
X90165000Y-107325000D03*
%TO.P,U8,4,A2*%
%TO.N,/D2*%
X87625000Y-107325000D03*
%TO.P,U8,5,A3*%
%TO.N,/D3*%
X85085000Y-107325000D03*
%TO.P,U8,6,A4*%
%TO.N,/D4*%
X82545000Y-107325000D03*
%TO.P,U8,7,A5*%
%TO.N,/D5*%
X80005000Y-107325000D03*
%TO.P,U8,8,A6*%
%TO.N,/D6*%
X77465000Y-107325000D03*
%TO.P,U8,9,A7*%
%TO.N,/D7*%
X74925000Y-107325000D03*
%TO.P,U8,10,GND*%
%TO.N,GNDD*%
X72385000Y-107325000D03*
%TO.P,U8,11,B7*%
%TO.N,/CPU_D7*%
X72385000Y-114945000D03*
%TO.P,U8,12,B6*%
%TO.N,/CPU_D6*%
X74925000Y-114945000D03*
%TO.P,U8,13,B5*%
%TO.N,/CPU_D5*%
X77465000Y-114945000D03*
%TO.P,U8,14,B4*%
%TO.N,/CPU_D4*%
X80005000Y-114945000D03*
%TO.P,U8,15,B3*%
%TO.N,/CPU_D3*%
X82545000Y-114945000D03*
%TO.P,U8,16,B2*%
%TO.N,/CPU_D2*%
X85085000Y-114945000D03*
%TO.P,U8,17,B1*%
%TO.N,/CPU_D1*%
X87625000Y-114945000D03*
%TO.P,U8,18,B0*%
%TO.N,/CPU_D0*%
X90165000Y-114945000D03*
%TO.P,U8,19,CE*%
%TO.N,BANK_LATCH_CLK*%
X92705000Y-114945000D03*
%TO.P,U8,20,VCC*%
%TO.N,+5V*%
X95245000Y-114945000D03*
%TD*%
D12*
%TO.P,U12,1,I/CLK*%
%TO.N,CLK*%
X208502480Y-107325000D03*
D13*
%TO.P,U12,2,I1*%
%TO.N,/X*%
X205962480Y-107325000D03*
%TO.P,U12,3,I2*%
%TO.N,/Y*%
X203422480Y-107325000D03*
%TO.P,U12,4,PD/I3*%
%TO.N,/Z*%
X200882480Y-107325000D03*
%TO.P,U12,5,I4*%
%TO.N,/VALID*%
X198342480Y-107325000D03*
%TO.P,U12,6,I5*%
%TO.N,~{CLK}*%
X195802480Y-107325000D03*
%TO.P,U12,7,I6*%
%TO.N,GNDD*%
X193262480Y-107325000D03*
%TO.P,U12,8,I7*%
X190722480Y-107325000D03*
%TO.P,U12,9,I8*%
X188182480Y-107325000D03*
%TO.P,U12,10,GND*%
X185642480Y-107325000D03*
%TO.P,U12,11,I9/~{OE}*%
X185642480Y-114945000D03*
%TO.P,U12,12,I/O8*%
%TO.N,unconnected-(U12-Pad12)*%
X188182480Y-114945000D03*
%TO.P,U12,13,I/O7*%
%TO.N,unconnected-(U12-Pad13)*%
X190722480Y-114945000D03*
%TO.P,U12,14,I/O6*%
%TO.N,unconnected-(U12-Pad14)*%
X193262480Y-114945000D03*
%TO.P,U12,15,I/O5*%
%TO.N,BANK_LATCH_CLK*%
X195802480Y-114945000D03*
%TO.P,U12,16,I/O4*%
%TO.N,RDY*%
X198342480Y-114945000D03*
%TO.P,U12,17,I/03*%
%TO.N,IO*%
X200882480Y-114945000D03*
%TO.P,U12,18,I/O2*%
%TO.N,~{ROM}*%
X203422480Y-114945000D03*
%TO.P,U12,19,I/O1*%
%TO.N,~{RAM}*%
X205962480Y-114945000D03*
%TO.P,U12,20,VCC*%
%TO.N,+5V*%
X208502480Y-114945000D03*
%TD*%
D17*
%TO.P,C23,1*%
%TO.N,+5V*%
X144780000Y-110147500D03*
%TO.P,C23,2*%
%TO.N,GNDD*%
X144780000Y-107022500D03*
%TD*%
D24*
%TO.P,C2,1*%
%TO.N,+5V*%
X62957059Y-52253000D03*
%TO.P,C2,2*%
%TO.N,GNDD*%
X59832059Y-52253000D03*
%TD*%
D25*
%TO.P,U6,1,~{VP}*%
%TO.N,unconnected-(U6-Pad1)*%
X33015000Y-66680000D03*
D26*
%TO.P,U6,2,RDY*%
%TO.N,Net-(R3-Pad2)*%
X33015000Y-69220000D03*
%TO.P,U6,3,~{ABORT}*%
%TO.N,+5V*%
X33015000Y-71760000D03*
%TO.P,U6,4,~{IRQ}*%
%TO.N,/IRQB*%
X33015000Y-74300000D03*
%TO.P,U6,5,~{ML}*%
%TO.N,unconnected-(U6-Pad5)*%
X33015000Y-76840000D03*
%TO.P,U6,6,~{NMI}*%
%TO.N,+5V*%
X33015000Y-79380000D03*
%TO.P,U6,7,VPA*%
%TO.N,VPA*%
X33015000Y-81920000D03*
%TO.P,U6,8,VDD*%
%TO.N,+5V*%
X33015000Y-84460000D03*
%TO.P,U6,9,A0*%
%TO.N,/A0*%
X33015000Y-87000000D03*
%TO.P,U6,10,A1*%
%TO.N,/A1*%
X33015000Y-89540000D03*
%TO.P,U6,11,A2*%
%TO.N,/A2*%
X33015000Y-92080000D03*
%TO.P,U6,12,A3*%
%TO.N,/A3*%
X33015000Y-94620000D03*
%TO.P,U6,13,A4*%
%TO.N,/A4*%
X33015000Y-97160000D03*
%TO.P,U6,14,A5*%
%TO.N,/A5*%
X33015000Y-99700000D03*
%TO.P,U6,15,A6*%
%TO.N,/A6*%
X33015000Y-102240000D03*
%TO.P,U6,16,A7*%
%TO.N,/A7*%
X33015000Y-104780000D03*
%TO.P,U6,17,A8*%
%TO.N,/A8*%
X33015000Y-107320000D03*
%TO.P,U6,18,A9*%
%TO.N,/A9*%
X33015000Y-109860000D03*
%TO.P,U6,19,A10*%
%TO.N,/A10*%
X33015000Y-112400000D03*
%TO.P,U6,20,A11*%
%TO.N,/A11*%
X33015000Y-114940000D03*
%TO.P,U6,21,VSS*%
%TO.N,GNDD*%
X48255000Y-114940000D03*
%TO.P,U6,22,A12*%
%TO.N,/A12*%
X48255000Y-112400000D03*
%TO.P,U6,23,A13*%
%TO.N,/A13*%
X48255000Y-109860000D03*
%TO.P,U6,24,A14*%
%TO.N,/A14*%
X48255000Y-107320000D03*
%TO.P,U6,25,A15*%
%TO.N,/A15*%
X48255000Y-104780000D03*
%TO.P,U6,26,D7*%
%TO.N,/CPU_D7*%
X48255000Y-102240000D03*
%TO.P,U6,27,D6*%
%TO.N,/CPU_D6*%
X48255000Y-99700000D03*
%TO.P,U6,28,D5*%
%TO.N,/CPU_D5*%
X48255000Y-97160000D03*
%TO.P,U6,29,D4*%
%TO.N,/CPU_D4*%
X48255000Y-94620000D03*
%TO.P,U6,30,D3*%
%TO.N,/CPU_D3*%
X48255000Y-92080000D03*
%TO.P,U6,31,D2*%
%TO.N,/CPU_D2*%
X48255000Y-89540000D03*
%TO.P,U6,32,D1*%
%TO.N,/CPU_D1*%
X48255000Y-87000000D03*
%TO.P,U6,33,D0*%
%TO.N,/CPU_D0*%
X48255000Y-84460000D03*
%TO.P,U6,34,R/~{W}*%
%TO.N,/RWB*%
X48255000Y-81920000D03*
%TO.P,U6,35,E*%
%TO.N,unconnected-(U6-Pad35)*%
X48255000Y-79380000D03*
%TO.P,U6,36,BE*%
%TO.N,+5V*%
X48255000Y-76840000D03*
%TO.P,U6,37,\u03D50*%
%TO.N,CLK*%
X48255000Y-74300000D03*
%TO.P,U6,38,MX*%
%TO.N,unconnected-(U6-Pad38)*%
X48255000Y-71760000D03*
%TO.P,U6,39,VDA*%
%TO.N,VDA*%
X48255000Y-69220000D03*
%TO.P,U6,40,~{RES}*%
%TO.N,/RESB*%
X48255000Y-66680000D03*
%TD*%
D27*
%TO.P,U2,1,~{RST}*%
%TO.N,/RESB*%
X59006500Y-76266000D03*
%TO.P,U2,2,VCC*%
%TO.N,+5V*%
X59006500Y-78166000D03*
%TO.P,U2,3,GND*%
%TO.N,GNDD*%
X60881500Y-77216000D03*
%TD*%
D10*
%TO.P,C12,1*%
%TO.N,+5V*%
X55880000Y-112102500D03*
%TO.P,C12,2*%
%TO.N,GNDD*%
X55880000Y-115227500D03*
%TD*%
D12*
%TO.P,U7,1,VSS*%
%TO.N,GNDD*%
X206370000Y-76830000D03*
D13*
%TO.P,U7,2,PA0*%
%TO.N,/KEYBOARD_DATA*%
X203830000Y-76830000D03*
%TO.P,U7,3,PA1*%
%TO.N,/MOUSE_DATA*%
X201290000Y-76830000D03*
%TO.P,U7,4,PA2*%
%TO.N,/uSD_CS_5V*%
X198750000Y-76830000D03*
%TO.P,U7,5,PA3*%
%TO.N,/uSD_MOSI_5V*%
X196210000Y-76830000D03*
%TO.P,U7,6,PA4*%
%TO.N,/uSD_CLK_5V*%
X193670000Y-76830000D03*
%TO.P,U7,7,PA5*%
%TO.N,/uSD_MISO_5V*%
X191130000Y-76830000D03*
%TO.P,U7,8,PA6*%
%TO.N,/PA6*%
X188590000Y-76830000D03*
%TO.P,U7,9,PA7*%
%TO.N,/PA7*%
X186050000Y-76830000D03*
%TO.P,U7,10,PB0*%
%TO.N,/PB0*%
X183510000Y-76830000D03*
%TO.P,U7,11,PB1*%
%TO.N,/PB1*%
X180970000Y-76830000D03*
%TO.P,U7,12,PB2*%
%TO.N,/PB2*%
X178430000Y-76830000D03*
%TO.P,U7,13,PB3*%
%TO.N,/PB3*%
X175890000Y-76830000D03*
%TO.P,U7,14,PB4*%
%TO.N,/PB4*%
X173350000Y-76830000D03*
%TO.P,U7,15,PB5*%
%TO.N,/PB5*%
X170810000Y-76830000D03*
%TO.P,U7,16,PB6*%
%TO.N,/PB6*%
X168270000Y-76830000D03*
%TO.P,U7,17,PB7*%
%TO.N,/PB7*%
X165730000Y-76830000D03*
%TO.P,U7,18,CB1*%
%TO.N,/CB1*%
X163190000Y-76830000D03*
%TO.P,U7,19,CB2*%
%TO.N,/CB2*%
X160650000Y-76830000D03*
%TO.P,U7,20,VCC*%
%TO.N,+5V*%
X158110000Y-76830000D03*
%TO.P,U7,21,~{IRQ}*%
%TO.N,/IRQB*%
X158110000Y-92070000D03*
%TO.P,U7,22,R/~{W}*%
%TO.N,/RWB*%
X160650000Y-92070000D03*
%TO.P,U7,23,~{CS2}*%
%TO.N,GNDD*%
X163190000Y-92070000D03*
%TO.P,U7,24,CS1*%
%TO.N,IO*%
X165730000Y-92070000D03*
%TO.P,U7,25,\u03D52*%
%TO.N,CLK*%
X168270000Y-92070000D03*
%TO.P,U7,26,D7*%
%TO.N,/D7*%
X170810000Y-92070000D03*
%TO.P,U7,27,D6*%
%TO.N,/D6*%
X173350000Y-92070000D03*
%TO.P,U7,28,D5*%
%TO.N,/D5*%
X175890000Y-92070000D03*
%TO.P,U7,29,D4*%
%TO.N,/D4*%
X178430000Y-92070000D03*
%TO.P,U7,30,D3*%
%TO.N,/D3*%
X180970000Y-92070000D03*
%TO.P,U7,31,D2*%
%TO.N,/D2*%
X183510000Y-92070000D03*
%TO.P,U7,32,D1*%
%TO.N,/D1*%
X186050000Y-92070000D03*
%TO.P,U7,33,D0*%
%TO.N,/D0*%
X188590000Y-92070000D03*
%TO.P,U7,34,~{RES}*%
%TO.N,/RESB*%
X191130000Y-92070000D03*
%TO.P,U7,35,RS3*%
%TO.N,/A3*%
X193670000Y-92070000D03*
%TO.P,U7,36,RS2*%
%TO.N,/A2*%
X196210000Y-92070000D03*
%TO.P,U7,37,RS1*%
%TO.N,/A1*%
X198750000Y-92070000D03*
%TO.P,U7,38,RS0*%
%TO.N,/A0*%
X201290000Y-92070000D03*
%TO.P,U7,39,CA2*%
%TO.N,/MOUSE_CLOCK*%
X203830000Y-92070000D03*
%TO.P,U7,40,CA1*%
%TO.N,/KEYBOARD_CLOCK*%
X206370000Y-92070000D03*
%TD*%
D17*
%TO.P,C21,1*%
%TO.N,+5V*%
X129540000Y-63577000D03*
%TO.P,C21,2*%
%TO.N,GNDD*%
X129540000Y-60452000D03*
%TD*%
D10*
%TO.P,C6,1*%
%TO.N,+5V*%
X78359000Y-72097500D03*
%TO.P,C6,2*%
%TO.N,GNDD*%
X78359000Y-75222500D03*
%TD*%
D28*
%TO.P,X1,1,Tri-State*%
%TO.N,+5V*%
X120396000Y-68072000D03*
D22*
%TO.P,X1,4,GND*%
%TO.N,GNDD*%
X120396000Y-60452000D03*
%TO.P,X1,5,OUT*%
%TO.N,/CLK\u002A2*%
X112776000Y-60452000D03*
%TO.P,X1,8,VDD*%
%TO.N,+5V*%
X112776000Y-68072000D03*
%TD*%
D29*
%TO.P,J2,1*%
%TO.N,/KEYBOARD_DATA*%
X172182000Y-50564000D03*
%TO.P,J2,2*%
%TO.N,unconnected-(J2-Pad2)*%
X174782000Y-50564000D03*
%TO.P,J2,3*%
%TO.N,GNDD*%
X170082000Y-50564000D03*
%TO.P,J2,5*%
%TO.N,+5V*%
X176882000Y-50564000D03*
%TO.P,J2,6*%
%TO.N,/KEYBOARD_CLOCK*%
X170082000Y-53064000D03*
%TO.P,J2,8*%
%TO.N,unconnected-(J2-Pad8)*%
X176882000Y-53064000D03*
D30*
%TO.P,J2,MH1*%
%TO.N,N/C*%
X166732000Y-47564000D03*
%TO.P,J2,MH2*%
X173482000Y-46764000D03*
%TO.P,J2,MH3*%
X180232000Y-47564000D03*
%TD*%
D31*
%TO.P,J5,1,Pin_1*%
%TO.N,+9V*%
X86360000Y-45720000D03*
D32*
%TO.P,J5,2,Pin_2*%
%TO.N,+5V*%
X88900000Y-45720000D03*
%TO.P,J5,3,Pin_3*%
%TO.N,+3V3*%
X91440000Y-45720000D03*
%TO.P,J5,4,Pin_4*%
%TO.N,/PA6*%
X93980000Y-45720000D03*
%TO.P,J5,5,Pin_5*%
%TO.N,/PA7*%
X96520000Y-45720000D03*
%TO.P,J5,6,Pin_6*%
%TO.N,/PB0*%
X99060000Y-45720000D03*
%TO.P,J5,7,Pin_7*%
%TO.N,/PB1*%
X101600000Y-45720000D03*
%TO.P,J5,8,Pin_8*%
%TO.N,/PB2*%
X104140000Y-45720000D03*
%TO.P,J5,9,Pin_9*%
%TO.N,/PB3*%
X106680000Y-45720000D03*
%TO.P,J5,10,Pin_10*%
%TO.N,/PB4*%
X109220000Y-45720000D03*
%TO.P,J5,11,Pin_11*%
%TO.N,/PB5*%
X111760000Y-45720000D03*
%TO.P,J5,12,Pin_12*%
%TO.N,/PB6*%
X114300000Y-45720000D03*
%TO.P,J5,13,Pin_13*%
%TO.N,/PB7*%
X116840000Y-45720000D03*
%TO.P,J5,14,Pin_14*%
%TO.N,/CB1*%
X119380000Y-45720000D03*
%TO.P,J5,15,Pin_15*%
%TO.N,/CB2*%
X121920000Y-45720000D03*
%TO.P,J5,16,Pin_16*%
%TO.N,GNDD*%
X124460000Y-45720000D03*
%TD*%
D17*
%TO.P,C24,1*%
%TO.N,+5V*%
X140970000Y-110147500D03*
%TO.P,C24,2*%
%TO.N,GNDD*%
X140970000Y-107022500D03*
%TD*%
D33*
%TO.P,U9,1,VCCA*%
%TO.N,+3V3*%
X196596000Y-63565000D03*
%TO.P,U9,2,A1*%
%TO.N,/uSD_CS*%
X195326000Y-63565000D03*
%TO.P,U9,3,A2*%
%TO.N,/uSD_MOSI*%
X194056000Y-63565000D03*
%TO.P,U9,4,A3*%
%TO.N,/uSD_CLK*%
X192786000Y-63565000D03*
%TO.P,U9,5,A4*%
%TO.N,/uSD_MISO*%
X191516000Y-63565000D03*
%TO.P,U9,6,NC*%
%TO.N,unconnected-(U9-Pad6)*%
X190246000Y-63565000D03*
%TO.P,U9,7,GND*%
%TO.N,GNDD*%
X188976000Y-63565000D03*
%TO.P,U9,8,OE*%
%TO.N,+3V3*%
X188976000Y-68515000D03*
%TO.P,U9,9,NC*%
%TO.N,unconnected-(U9-Pad9)*%
X190246000Y-68515000D03*
%TO.P,U9,10,B4*%
%TO.N,/uSD_MISO_5V*%
X191516000Y-68515000D03*
%TO.P,U9,11,B3*%
%TO.N,/uSD_CLK_5V*%
X192786000Y-68515000D03*
%TO.P,U9,12,B2*%
%TO.N,/uSD_MOSI_5V*%
X194056000Y-68515000D03*
%TO.P,U9,13,B1*%
%TO.N,/uSD_CS_5V*%
X195326000Y-68515000D03*
%TO.P,U9,14,VCCB*%
%TO.N,+5V*%
X196596000Y-68515000D03*
%TD*%
D10*
%TO.P,C20,1*%
%TO.N,+5V*%
X93228000Y-64741500D03*
%TO.P,C20,2*%
%TO.N,GNDD*%
X93228000Y-67866500D03*
%TD*%
D17*
%TO.P,C25,1*%
%TO.N,+5V*%
X181837480Y-110147500D03*
%TO.P,C25,2*%
%TO.N,GNDD*%
X181837480Y-107022500D03*
%TD*%
D12*
%TO.P,U11,1*%
%TO.N,N/C*%
X139065000Y-76835000D03*
D13*
%TO.P,U11,2,A12*%
%TO.N,/A12*%
X136525000Y-76835000D03*
%TO.P,U11,3,A7*%
%TO.N,/A7*%
X133985000Y-76835000D03*
%TO.P,U11,4,A6*%
%TO.N,/A6*%
X131445000Y-76835000D03*
%TO.P,U11,5,A5*%
%TO.N,/A5*%
X128905000Y-76835000D03*
%TO.P,U11,6,A4*%
%TO.N,/A4*%
X126365000Y-76835000D03*
%TO.P,U11,7,A3*%
%TO.N,/A3*%
X123825000Y-76835000D03*
%TO.P,U11,8,A2*%
%TO.N,/A2*%
X121285000Y-76835000D03*
%TO.P,U11,9,A1*%
%TO.N,/A1*%
X118745000Y-76835000D03*
%TO.P,U11,10,A0*%
%TO.N,/A0*%
X116205000Y-76835000D03*
%TO.P,U11,11,D0*%
%TO.N,/D0*%
X113665000Y-76835000D03*
%TO.P,U11,12,D1*%
%TO.N,/D1*%
X111125000Y-76835000D03*
%TO.P,U11,13,D2*%
%TO.N,/D2*%
X108585000Y-76835000D03*
%TO.P,U11,14,GND*%
%TO.N,GNDD*%
X106045000Y-76835000D03*
%TO.P,U11,15,D3*%
%TO.N,/D3*%
X106045000Y-92075000D03*
%TO.P,U11,16,D4*%
%TO.N,/D4*%
X108585000Y-92075000D03*
%TO.P,U11,17,D5*%
%TO.N,/D5*%
X111125000Y-92075000D03*
%TO.P,U11,18,D6*%
%TO.N,/D6*%
X113665000Y-92075000D03*
%TO.P,U11,19,D7*%
%TO.N,/D7*%
X116205000Y-92075000D03*
%TO.P,U11,20,~{CS}*%
%TO.N,~{ROM}*%
X118745000Y-92075000D03*
%TO.P,U11,21,A10*%
%TO.N,/A10*%
X121285000Y-92075000D03*
%TO.P,U11,22,~{OE}*%
%TO.N,GNDD*%
X123825000Y-92075000D03*
%TO.P,U11,23,A11*%
%TO.N,/A11*%
X126365000Y-92075000D03*
%TO.P,U11,24,A9*%
%TO.N,/A9*%
X128905000Y-92075000D03*
%TO.P,U11,25,A8*%
%TO.N,/A8*%
X131445000Y-92075000D03*
%TO.P,U11,26*%
%TO.N,N/C*%
X133985000Y-92075000D03*
%TO.P,U11,27,~{WE}*%
%TO.N,+5V*%
X136525000Y-92075000D03*
%TO.P,U11,28,VCC*%
X139065000Y-92075000D03*
%TD*%
D11*
%TO.P,C7,1*%
%TO.N,+5V*%
X77812500Y-98420000D03*
%TO.P,C7,2*%
%TO.N,GNDD*%
X80937500Y-98420000D03*
%TD*%
%TO.P,C14,1*%
%TO.N,+5V*%
X203532500Y-69215000D03*
%TO.P,C14,2*%
%TO.N,GNDD*%
X206657500Y-69215000D03*
%TD*%
%TO.P,C18,1*%
%TO.N,+5V*%
X103197500Y-69215000D03*
%TO.P,C18,2*%
%TO.N,GNDD*%
X106322500Y-69215000D03*
%TD*%
D17*
%TO.P,C3,1*%
%TO.N,+5V*%
X106680000Y-110147500D03*
%TO.P,C3,2*%
%TO.N,GNDD*%
X106680000Y-107022500D03*
%TD*%
D24*
%TO.P,C9,1*%
%TO.N,+9V*%
X175806500Y-71628000D03*
%TO.P,C9,2*%
%TO.N,GNDD*%
X172681500Y-71628000D03*
%TD*%
D17*
%TO.P,C4,1*%
%TO.N,+5V*%
X102870000Y-110147500D03*
%TO.P,C4,2*%
%TO.N,GNDD*%
X102870000Y-107022500D03*
%TD*%
D24*
%TO.P,C10,1*%
%TO.N,+3V3*%
X175806500Y-61468000D03*
%TO.P,C10,2*%
%TO.N,GNDD*%
X172681500Y-61468000D03*
%TD*%
D17*
%TO.P,C26,1*%
%TO.N,+5V*%
X178027480Y-110147500D03*
%TO.P,C26,2*%
%TO.N,GNDD*%
X178027480Y-107022500D03*
%TD*%
D12*
%TO.P,U13,1,I/CLK*%
%TO.N,/A18*%
X171445000Y-107325000D03*
D13*
%TO.P,U13,2,I1*%
%TO.N,/A17*%
X168905000Y-107325000D03*
%TO.P,U13,3,I2*%
%TO.N,/A16*%
X166365000Y-107325000D03*
%TO.P,U13,4,PD/I3*%
%TO.N,/A12*%
X163825000Y-107325000D03*
%TO.P,U13,5,I4*%
%TO.N,/A11*%
X161285000Y-107325000D03*
%TO.P,U13,6,I5*%
%TO.N,/A10*%
X158745000Y-107325000D03*
%TO.P,U13,7,I6*%
%TO.N,/A9*%
X156205000Y-107325000D03*
%TO.P,U13,8,I7*%
%TO.N,/A8*%
X153665000Y-107325000D03*
%TO.P,U13,9,I8*%
%TO.N,VPA*%
X151125000Y-107325000D03*
%TO.P,U13,10,GND*%
%TO.N,GNDD*%
X148585000Y-107325000D03*
%TO.P,U13,11,I9/~{OE}*%
%TO.N,VDA*%
X148585000Y-114945000D03*
%TO.P,U13,12,I/O8*%
%TO.N,/A13*%
X151125000Y-114945000D03*
%TO.P,U13,13,I/O7*%
%TO.N,/A14*%
X153665000Y-114945000D03*
%TO.P,U13,14,I/O6*%
%TO.N,/A15*%
X156205000Y-114945000D03*
%TO.P,U13,15,I/O5*%
%TO.N,unconnected-(U13-Pad15)*%
X158745000Y-114945000D03*
%TO.P,U13,16,I/O4*%
%TO.N,/VALID*%
X161285000Y-114945000D03*
%TO.P,U13,17,I/03*%
%TO.N,/Z*%
X163825000Y-114945000D03*
%TO.P,U13,18,I/O2*%
%TO.N,/Y*%
X166365000Y-114945000D03*
%TO.P,U13,19,I/O1*%
%TO.N,/X*%
X168905000Y-114945000D03*
%TO.P,U13,20,VCC*%
%TO.N,+5V*%
X171445000Y-114945000D03*
%TD*%
D11*
%TO.P,C13,1*%
%TO.N,+5V*%
X203532500Y-73025000D03*
%TO.P,C13,2*%
%TO.N,GNDD*%
X206657500Y-73025000D03*
%TD*%
D22*
%TO.P,R1,1*%
%TO.N,GNDD*%
X145214559Y-60688978D03*
D23*
%TO.P,R1,2*%
%TO.N,/MOUSE_DATA*%
X152834559Y-60688978D03*
%TD*%
D34*
%TO.P,J4,1,DAT2*%
%TO.N,unconnected-(J4-Pad1)*%
X193196070Y-48006000D03*
%TO.P,J4,2,DAT3/CD*%
%TO.N,/uSD_CS*%
X194296070Y-48006000D03*
%TO.P,J4,3,CMD*%
%TO.N,/uSD_MOSI*%
X195396070Y-48006000D03*
%TO.P,J4,4,VDD*%
%TO.N,+3V3*%
X196496070Y-48006000D03*
%TO.P,J4,5,CLK*%
%TO.N,/uSD_CLK*%
X197596070Y-48006000D03*
%TO.P,J4,6,VSS*%
%TO.N,GNDD*%
X198696070Y-48006000D03*
%TO.P,J4,7,DAT0*%
%TO.N,/uSD_MISO*%
X199796070Y-48006000D03*
%TO.P,J4,8,DAT1*%
%TO.N,unconnected-(J4-Pad8)*%
X200896070Y-48006000D03*
D35*
%TO.P,J4,9,SHIELD*%
%TO.N,unconnected-(J4-Pad9)*%
X203271070Y-45406000D03*
X189521070Y-53706000D03*
X189521070Y-45406000D03*
X203271070Y-53706000D03*
%TD*%
D29*
%TO.P,J3,1*%
%TO.N,/MOUSE_DATA*%
X150592000Y-50564000D03*
%TO.P,J3,2*%
%TO.N,unconnected-(J3-Pad2)*%
X153192000Y-50564000D03*
%TO.P,J3,3*%
%TO.N,GNDD*%
X148492000Y-50564000D03*
%TO.P,J3,5*%
%TO.N,+5V*%
X155292000Y-50564000D03*
%TO.P,J3,6*%
%TO.N,/MOUSE_CLOCK*%
X148492000Y-53064000D03*
%TO.P,J3,8*%
%TO.N,unconnected-(J3-Pad8)*%
X155292000Y-53064000D03*
D30*
%TO.P,J3,MH1*%
%TO.N,N/C*%
X145142000Y-47564000D03*
%TO.P,J3,MH2*%
X151892000Y-46764000D03*
%TO.P,J3,MH3*%
X158642000Y-47564000D03*
%TD*%
D17*
%TO.P,C22,1*%
%TO.N,+5V*%
X125730000Y-63577000D03*
%TO.P,C22,2*%
%TO.N,GNDD*%
X125730000Y-60452000D03*
%TD*%
D10*
%TO.P,C11,1*%
%TO.N,+5V*%
X52070000Y-112102500D03*
%TO.P,C11,2*%
%TO.N,GNDD*%
X52070000Y-115227500D03*
%TD*%
D22*
%TO.P,R3,1*%
%TO.N,RDY*%
X28956000Y-76708000D03*
D23*
%TO.P,R3,2*%
%TO.N,Net-(R3-Pad2)*%
X28956000Y-69088000D03*
%TD*%
D36*
%TO.P,U1,1,VI*%
%TO.N,+9V*%
X56314559Y-48443000D03*
D37*
%TO.P,U1,2,GND*%
%TO.N,GNDD*%
X58854559Y-48443000D03*
%TO.P,U1,3,VO*%
%TO.N,+5V*%
X61394559Y-48443000D03*
%TD*%
D38*
%TO.N,GNDD*%
X178181000Y-100838000D03*
X100711000Y-71374000D03*
X100711000Y-76454000D03*
X115570000Y-62484000D03*
X175514000Y-103505000D03*
X123952000Y-99187000D03*
X90424000Y-100330000D03*
X139065000Y-103251000D03*
X187452000Y-63500000D03*
X131953000Y-103251000D03*
X78994000Y-82283060D03*
X87884000Y-103124000D03*
X82296000Y-88138000D03*
X90424000Y-96012000D03*
X82042000Y-64274500D03*
X198755511Y-50800000D03*
X169164000Y-66675000D03*
X123952000Y-96139000D03*
%TO.N,+5V*%
X145351500Y-83375500D03*
X84074000Y-75946000D03*
X154686000Y-110236000D03*
X164592000Y-112534500D03*
X112776000Y-83439000D03*
X149225000Y-79502000D03*
X80645000Y-82283080D03*
X85963083Y-74056917D03*
X168441655Y-112561655D03*
X78994000Y-88138000D03*
X187960000Y-110236000D03*
X169545000Y-97663000D03*
X103124000Y-77461969D03*
X41021000Y-76454000D03*
X139319000Y-84201000D03*
%TO.N,CLK*%
X159507701Y-101858299D03*
X127508000Y-75184000D03*
%TO.N,/A18*%
X86546994Y-98976520D03*
%TO.N,/A17*%
X87761479Y-99515845D03*
%TO.N,/A16*%
X88900000Y-99822000D03*
%TO.N,/A0*%
X87036643Y-80276297D03*
%TO.N,/A1*%
X86011083Y-80499189D03*
%TO.N,/A2*%
X85105724Y-81030020D03*
%TO.N,/A3*%
X84116490Y-81529540D03*
%TO.N,/A4*%
X83117288Y-82029060D03*
%TO.N,~{RAM}*%
X111252000Y-95758000D03*
X152146000Y-104140000D03*
X82042000Y-82283069D03*
%TO.N,/D0*%
X99110000Y-79785469D03*
X99110000Y-87376000D03*
%TO.N,/D1*%
X98335500Y-79010969D03*
X98335500Y-88138000D03*
%TO.N,/D2*%
X97561000Y-87376000D03*
X97561000Y-78236469D03*
%TO.N,/D3*%
X96786500Y-91948000D03*
X96786500Y-77461969D03*
%TO.N,/A5*%
X77470000Y-82528580D03*
%TO.N,/A6*%
X76438587Y-83070500D03*
%TO.N,/A7*%
X75496244Y-83570020D03*
%TO.N,/A8*%
X74577394Y-84077138D03*
%TO.N,/A9*%
X73542614Y-84594500D03*
%TO.N,/A10*%
X73294762Y-85839500D03*
%TO.N,/A11*%
X117243053Y-86093500D03*
X74168000Y-87109500D03*
X120396000Y-86093500D03*
%TO.N,/A12*%
X74949500Y-87884000D03*
X127762000Y-85851989D03*
X115316000Y-86872020D03*
%TO.N,/A13*%
X73152000Y-91681500D03*
X67564000Y-91694000D03*
%TO.N,/A14*%
X71120000Y-92456000D03*
X64257701Y-92451701D03*
%TO.N,/D5*%
X80010000Y-103644500D03*
%TO.N,/D6*%
X82042000Y-102869989D03*
%TO.N,/D7*%
X83058000Y-101600000D03*
%TO.N,/A15*%
X83601461Y-98252020D03*
X69088000Y-93230500D03*
X60960000Y-93218000D03*
%TO.N,VPA*%
X157480000Y-116819020D03*
%TO.N,~{CLK}*%
X128270000Y-74409500D03*
%TO.N,~{ROM}*%
X151638000Y-103124000D03*
%TO.N,/RWB*%
X96012000Y-76687469D03*
X99298082Y-94980083D03*
%TO.N,/IRQB*%
X142240000Y-77724000D03*
%TD*%
D39*
%TO.N,GNDD*%
X60996000Y-77101500D02*
X60996000Y-71338000D01*
X60881500Y-77216000D02*
X60996000Y-77101500D01*
D40*
X175514000Y-103505000D02*
X178181000Y-100838000D01*
D41*
X97038000Y-67866500D02*
X93228000Y-67866500D01*
X51782500Y-114940000D02*
X52070000Y-115227500D01*
D42*
X79775000Y-89135000D02*
X79775000Y-90037500D01*
X185642480Y-107325000D02*
X188182480Y-107325000D01*
D41*
X129540000Y-60452000D02*
X120396000Y-60452000D01*
X89964500Y-67866500D02*
X89662000Y-67564000D01*
X78359000Y-75222500D02*
X78359000Y-76581000D01*
X206370000Y-76830000D02*
X206370000Y-73312500D01*
X58854559Y-51275500D02*
X58854559Y-48443000D01*
D42*
X78975000Y-82264060D02*
X78994000Y-82283060D01*
X79775000Y-90037500D02*
X79775000Y-91675000D01*
X82296000Y-88138000D02*
X82296000Y-88773000D01*
X78975000Y-77197000D02*
X78613000Y-76835000D01*
D40*
X139065000Y-103251000D02*
X131953000Y-103251000D01*
D41*
X106045000Y-73302500D02*
X106322500Y-73025000D01*
D40*
X148585000Y-104135000D02*
X148585000Y-107325000D01*
D41*
X148282500Y-107022500D02*
X148585000Y-107325000D01*
X169164000Y-66675000D02*
X174117000Y-66675000D01*
X102870000Y-107022500D02*
X110182500Y-107022500D01*
D42*
X56440000Y-71338000D02*
X60996000Y-71338000D01*
X82042000Y-67564000D02*
X82042000Y-64274500D01*
X190722480Y-107325000D02*
X193262480Y-107325000D01*
X82175000Y-89174118D02*
X81776362Y-88775480D01*
D41*
X48255000Y-114940000D02*
X51782500Y-114940000D01*
D42*
X81776362Y-88775480D02*
X80134520Y-88775480D01*
D41*
X80937500Y-92875500D02*
X79756000Y-91694000D01*
X120396000Y-60452000D02*
X117602000Y-60452000D01*
D40*
X90424000Y-100330000D02*
X90424000Y-96012000D01*
D41*
X58854559Y-50915500D02*
X58854559Y-48443000D01*
X174117000Y-66675000D02*
X174244000Y-66548000D01*
D40*
X87884000Y-103124000D02*
X90424000Y-100584000D01*
D41*
X64770000Y-107022500D02*
X72082500Y-107022500D01*
X178027480Y-107022500D02*
X185339980Y-107022500D01*
D40*
X90424000Y-100584000D02*
X90424000Y-100330000D01*
D41*
X110182500Y-107022500D02*
X110485000Y-107325000D01*
X78359000Y-76581000D02*
X78613000Y-76835000D01*
X172681500Y-71628000D02*
X172681500Y-61468000D01*
X57517059Y-52253000D02*
X58854559Y-50915500D01*
X106045000Y-76835000D02*
X106045000Y-73302500D01*
X206657500Y-69215000D02*
X206657500Y-73025000D01*
D40*
X100711000Y-76454000D02*
X100711000Y-71374000D01*
X123952000Y-99187000D02*
X123952000Y-96139000D01*
D41*
X106322500Y-69215000D02*
X106322500Y-73025000D01*
D42*
X82296000Y-88773000D02*
X82034941Y-89034059D01*
X79775000Y-91675000D02*
X79756000Y-91694000D01*
X80134520Y-88775480D02*
X79775000Y-89135000D01*
X188976000Y-63565000D02*
X187517000Y-63565000D01*
D41*
X93228000Y-67866500D02*
X89964500Y-67866500D01*
D40*
X147701000Y-103251000D02*
X148585000Y-104135000D01*
D42*
X78975000Y-78862500D02*
X78975000Y-77197000D01*
D41*
X117602000Y-60452000D02*
X115570000Y-62484000D01*
X74549000Y-75222500D02*
X78359000Y-75222500D01*
X206370000Y-73312500D02*
X206657500Y-73025000D01*
X185339980Y-107022500D02*
X185642480Y-107325000D01*
X140970000Y-107022500D02*
X148282500Y-107022500D01*
D39*
X187517000Y-63565000D02*
X187452000Y-63500000D01*
D42*
X188182480Y-107325000D02*
X190722480Y-107325000D01*
X60996000Y-71338000D02*
X62940000Y-71338000D01*
X198755511Y-50800000D02*
X198696070Y-50740559D01*
D41*
X52070000Y-115227500D02*
X55880000Y-115227500D01*
X59832059Y-52253000D02*
X58854559Y-51275500D01*
D42*
X82175000Y-90037500D02*
X82175000Y-89174118D01*
D41*
X80937500Y-98420000D02*
X80937500Y-92875500D01*
D42*
X198696070Y-50740559D02*
X198696070Y-48006000D01*
X78975000Y-78862500D02*
X78975000Y-82264060D01*
D40*
X139065000Y-103251000D02*
X147701000Y-103251000D01*
D39*
%TO.N,+5V*%
X108292500Y-111760000D02*
X131953000Y-111760000D01*
D42*
X201839502Y-97663000D02*
X203014798Y-97663000D01*
X99822000Y-62611000D02*
X102933500Y-65722500D01*
D39*
X125730000Y-63577000D02*
X117271000Y-63577000D01*
X124079000Y-83439000D02*
X129667000Y-89027000D01*
X77812500Y-94605000D02*
X77812500Y-91936138D01*
X159684520Y-78404520D02*
X158110000Y-76830000D01*
D42*
X87447000Y-48443000D02*
X88900000Y-46990000D01*
X141234480Y-71511480D02*
X149225000Y-79502000D01*
X169061655Y-112561655D02*
X171445000Y-114945000D01*
X112141000Y-67437000D02*
X112776000Y-68072000D01*
D39*
X91672401Y-111372401D02*
X95245000Y-114945000D01*
D42*
X176655143Y-50564000D02*
X175330632Y-49239489D01*
X83420039Y-76599961D02*
X84074000Y-75946000D01*
X41021000Y-68707000D02*
X41021000Y-71755000D01*
X171740693Y-49239489D02*
X171241173Y-48739969D01*
D39*
X103251000Y-77334969D02*
X103251000Y-73078500D01*
X34793000Y-84460000D02*
X36566000Y-86233000D01*
D42*
X97795000Y-112395000D02*
X131191000Y-112395000D01*
X140008552Y-71511480D02*
X141234480Y-71511480D01*
X112776000Y-68072000D02*
X116215481Y-71511481D01*
D39*
X136017000Y-89027000D02*
X139065000Y-92075000D01*
X79775000Y-73513500D02*
X79775000Y-78862500D01*
X93228000Y-64741500D02*
X91986500Y-63500000D01*
D42*
X151897000Y-76830000D02*
X158110000Y-76830000D01*
X133350000Y-114554000D02*
X133350000Y-114818000D01*
X78994000Y-90018500D02*
X78975000Y-90037500D01*
X131191000Y-112395000D02*
X133350000Y-114554000D01*
X155505305Y-112808079D02*
X135481921Y-112808079D01*
X41021000Y-71755000D02*
X41021000Y-76454000D01*
D39*
X181925980Y-110236000D02*
X181837480Y-110147500D01*
D42*
X79775000Y-80410000D02*
X79775000Y-78862500D01*
X79775000Y-78862500D02*
X79775000Y-77999118D01*
D39*
X50597980Y-113574520D02*
X52070000Y-112102500D01*
D42*
X197547000Y-67564000D02*
X196596000Y-68515000D01*
X74549000Y-62611000D02*
X99822000Y-62611000D01*
D39*
X74041000Y-63500000D02*
X71882000Y-61341000D01*
X199924520Y-77716502D02*
X199236502Y-78404520D01*
D42*
X208026000Y-92651798D02*
X208026000Y-68453000D01*
D39*
X57680500Y-76840000D02*
X59006500Y-78166000D01*
D42*
X169326461Y-48739969D02*
X167502430Y-50564000D01*
X135481921Y-112808079D02*
X133345000Y-114945000D01*
D39*
X131953000Y-111760000D02*
X133345000Y-113152000D01*
D42*
X97038000Y-64741500D02*
X93228000Y-64741500D01*
X201839502Y-97663000D02*
X209801991Y-105625489D01*
D39*
X36576000Y-112522000D02*
X37628520Y-113574520D01*
D42*
X203014798Y-97663000D02*
X208026000Y-92651798D01*
X79775000Y-77999118D02*
X81174158Y-76599960D01*
D39*
X203033978Y-73025000D02*
X199924520Y-76134458D01*
X48255000Y-76840000D02*
X57680500Y-76840000D01*
D42*
X164592000Y-112534500D02*
X164579500Y-112522000D01*
D39*
X199924520Y-76134458D02*
X199924520Y-77716502D01*
D42*
X164579500Y-112522000D02*
X155791384Y-112522000D01*
X116215481Y-71511481D02*
X140008552Y-71511480D01*
X77812500Y-98420000D02*
X77812500Y-94605000D01*
X155791384Y-112522000D02*
X155505305Y-112808079D01*
X140970000Y-110147500D02*
X144780000Y-110147500D01*
X203532500Y-69215000D02*
X203532500Y-73025000D01*
X139319000Y-84201000D02*
X139065000Y-84455000D01*
D39*
X70993000Y-60833000D02*
X71882000Y-59944000D01*
D42*
X207137000Y-67564000D02*
X197547000Y-67564000D01*
D39*
X203532500Y-73025000D02*
X203033978Y-73025000D01*
D42*
X139065000Y-84455000D02*
X139065000Y-92075000D01*
X95245000Y-114945000D02*
X97795000Y-112395000D01*
X120396000Y-68072000D02*
X112776000Y-68072000D01*
X171241173Y-48739969D02*
X169326461Y-48739969D01*
D39*
X34549000Y-79380000D02*
X36322000Y-81153000D01*
D42*
X71882000Y-59944000D02*
X49784000Y-59944000D01*
D39*
X78359000Y-72097500D02*
X79775000Y-73513500D01*
X91986500Y-63500000D02*
X74041000Y-63500000D01*
D42*
X88519000Y-71501000D02*
X97155000Y-71501000D01*
X80645000Y-81280000D02*
X79775000Y-80410000D01*
X103202500Y-73030000D02*
X103197500Y-73025000D01*
X209801991Y-105625489D02*
X209801991Y-113645489D01*
D39*
X41016000Y-71760000D02*
X41021000Y-71755000D01*
D42*
X49784000Y-59944000D02*
X41021000Y-68707000D01*
X81174158Y-76599960D02*
X82423000Y-76599961D01*
D40*
X62957059Y-50005500D02*
X61394559Y-48443000D01*
D42*
X74549000Y-72097500D02*
X78359000Y-72097500D01*
D39*
X129667000Y-89027000D02*
X136017000Y-89027000D01*
X37628520Y-113574520D02*
X50597980Y-113574520D01*
X187960000Y-110236000D02*
X181925980Y-110236000D01*
D42*
X129540000Y-63577000D02*
X125730000Y-63577000D01*
D39*
X199236502Y-78404520D02*
X159684520Y-78404520D01*
X36566000Y-86233000D02*
X36576000Y-86233000D01*
D42*
X176882000Y-50564000D02*
X176655143Y-50564000D01*
X209801991Y-113645489D02*
X208502480Y-114945000D01*
D39*
X71882000Y-61341000D02*
X71882000Y-59944000D01*
X70993000Y-62103000D02*
X70993000Y-60833000D01*
X112776000Y-83439000D02*
X124079000Y-83439000D01*
D42*
X82423000Y-76599961D02*
X83420039Y-76599961D01*
X102933500Y-65722500D02*
X104648000Y-67437000D01*
D39*
X154686000Y-110236000D02*
X144868500Y-110236000D01*
X77812500Y-91936138D02*
X78975000Y-90773638D01*
D42*
X178027480Y-110147500D02*
X181837480Y-110147500D01*
X61394559Y-48443000D02*
X87447000Y-48443000D01*
X88900000Y-46990000D02*
X88900000Y-45720000D01*
X159639000Y-97663000D02*
X201839502Y-97663000D01*
X145351500Y-83375500D02*
X159639000Y-97663000D01*
X175330632Y-49239489D02*
X171740693Y-49239489D01*
D39*
X33015000Y-71760000D02*
X41016000Y-71760000D01*
X69804901Y-111372401D02*
X91672401Y-111372401D01*
X106680000Y-110147500D02*
X108292500Y-111760000D01*
D42*
X103197500Y-73025000D02*
X103197500Y-69215000D01*
X104648000Y-67437000D02*
X112141000Y-67437000D01*
X208026000Y-68453000D02*
X207137000Y-67564000D01*
X41021000Y-76454000D02*
X36322000Y-81153000D01*
D39*
X33015000Y-79380000D02*
X34549000Y-79380000D01*
X117271000Y-63577000D02*
X112776000Y-68072000D01*
X133345000Y-113152000D02*
X133345000Y-114945000D01*
D42*
X85963083Y-74056917D02*
X88519000Y-71501000D01*
X36322000Y-81153000D02*
X33015000Y-84460000D01*
D40*
X62957059Y-52253000D02*
X62957059Y-50005500D01*
D42*
X102870000Y-110147500D02*
X106680000Y-110147500D01*
D39*
X71882000Y-67564000D02*
X71882000Y-62992000D01*
X68580000Y-110147500D02*
X69804901Y-111372401D01*
X136525000Y-92075000D02*
X139065000Y-92075000D01*
X33015000Y-84460000D02*
X34793000Y-84460000D01*
D42*
X78994000Y-88138000D02*
X78994000Y-90018500D01*
D39*
X71882000Y-62992000D02*
X70993000Y-62103000D01*
X78975000Y-90773638D02*
X78975000Y-90037500D01*
D42*
X80645000Y-82283080D02*
X80645000Y-81280000D01*
D39*
X103124000Y-77461969D02*
X103251000Y-77334969D01*
D42*
X97155000Y-71501000D02*
X102933500Y-65722500D01*
X55880000Y-112102500D02*
X52070000Y-112102500D01*
D39*
X36576000Y-86233000D02*
X36576000Y-112522000D01*
D42*
X167502430Y-50564000D02*
X155292000Y-50564000D01*
X149225000Y-79502000D02*
X151897000Y-76830000D01*
X71882000Y-59944000D02*
X74549000Y-62611000D01*
X168441655Y-112561655D02*
X169061655Y-112561655D01*
X64770000Y-110147500D02*
X68580000Y-110147500D01*
%TO.N,+3V3*%
X188976000Y-67818000D02*
X188976000Y-68515000D01*
X91440000Y-46736000D02*
X91440000Y-45720000D01*
X176598000Y-61468000D02*
X175806500Y-61468000D01*
X185426000Y-64268000D02*
X188976000Y-67818000D01*
X179398000Y-64268000D02*
X176598000Y-61468000D01*
X196596000Y-64479279D02*
X195035279Y-66040000D01*
X175806500Y-61468000D02*
X174406980Y-60068480D01*
X168771866Y-60068480D02*
X166356346Y-62484000D01*
X180544000Y-64268000D02*
X185426000Y-64268000D01*
X93218000Y-48514000D02*
X91440000Y-46736000D01*
X130556000Y-48514000D02*
X93218000Y-48514000D01*
X188976000Y-67891441D02*
X188976000Y-68515000D01*
X166356346Y-62484000D02*
X144526000Y-62484000D01*
X195035279Y-66040000D02*
X190827441Y-66040000D01*
X196496070Y-48006000D02*
X196496070Y-63465070D01*
X196496070Y-63465070D02*
X196596000Y-63565000D01*
X174406980Y-60068480D02*
X168771866Y-60068480D01*
X190827441Y-66040000D02*
X188976000Y-67891441D01*
X144526000Y-62484000D02*
X130556000Y-48514000D01*
X180544000Y-64268000D02*
X179398000Y-64268000D01*
X196596000Y-63565000D02*
X196596000Y-64479279D01*
D39*
%TO.N,/KEYBOARD_DATA*%
X166042559Y-52907075D02*
X169585145Y-49364489D01*
X169585145Y-49364489D02*
X170982489Y-49364489D01*
X166042559Y-60960000D02*
X166042559Y-52907075D01*
X170982489Y-49364489D02*
X172182000Y-50564000D01*
%TO.N,/MOUSE_DATA*%
X150592000Y-50564000D02*
X150592000Y-58446419D01*
X150592000Y-58446419D02*
X152834559Y-60688978D01*
%TO.N,CLK*%
X46609000Y-77255022D02*
X46609000Y-75946000D01*
X51725520Y-78014520D02*
X47368498Y-78014520D01*
X175835022Y-108966000D02*
X172619511Y-105750489D01*
X198704458Y-104902000D02*
X196977000Y-106629458D01*
X47368498Y-78014520D02*
X46609000Y-77255022D01*
X74422000Y-67564000D02*
X61875480Y-80110520D01*
X163399891Y-105750489D02*
X159507701Y-101858299D01*
X206479480Y-104902000D02*
X198704458Y-104902000D01*
X140163022Y-75184000D02*
X140462000Y-75482978D01*
X172619511Y-105750489D02*
X163399891Y-105750489D01*
X196342000Y-108966000D02*
X175835022Y-108966000D01*
X46609000Y-75946000D02*
X48255000Y-74300000D01*
X53821520Y-80110520D02*
X51725520Y-78014520D01*
X140462000Y-75482978D02*
X140462000Y-82812598D01*
X196977000Y-106629458D02*
X196977000Y-108304480D01*
X208502480Y-107325000D02*
X208502480Y-106925000D01*
X61875480Y-80110520D02*
X53821520Y-80110520D01*
X196977000Y-108331000D02*
X196342000Y-108966000D01*
X208502480Y-106925000D02*
X206479480Y-104902000D01*
X140462000Y-82812598D02*
X159507701Y-101858299D01*
X127508000Y-75184000D02*
X140163022Y-75184000D01*
%TO.N,unconnected-(J4-Pad9)*%
X189521070Y-45406000D02*
X189521070Y-45302441D01*
X189865511Y-44958000D02*
X202823070Y-44958000D01*
X189521070Y-53706000D02*
X189521070Y-45406000D01*
X203271070Y-53706000D02*
X203271070Y-45406000D01*
X202823070Y-44958000D02*
X203271070Y-45406000D01*
X189521070Y-45302441D02*
X189865511Y-44958000D01*
%TO.N,RDY*%
X28956000Y-114554000D02*
X33461039Y-119059039D01*
X194228441Y-119059039D02*
X198342480Y-114945000D01*
X28956000Y-76708000D02*
X28956000Y-114554000D01*
X33461039Y-119059039D02*
X194228441Y-119059039D01*
%TO.N,Net-(R3-Pad2)*%
X33015000Y-69220000D02*
X29088000Y-69220000D01*
X29088000Y-69220000D02*
X28956000Y-69088000D01*
%TO.N,/CPU_D0*%
X87491921Y-111871921D02*
X84844532Y-111871922D01*
X84844532Y-111871922D02*
X63897634Y-111871922D01*
X51328080Y-99302368D02*
X51328080Y-87533080D01*
X90165000Y-114945000D02*
X90165000Y-114545000D01*
X63897634Y-111871922D02*
X51328080Y-99302368D01*
X51328080Y-87533080D02*
X48255000Y-84460000D01*
X90165000Y-114545000D02*
X87491921Y-111871921D01*
%TO.N,/CPU_D1*%
X50828560Y-89573560D02*
X48255000Y-87000000D01*
X87625000Y-114945000D02*
X85051441Y-112371441D01*
X85051441Y-112371441D02*
X63690725Y-112371441D01*
X50828560Y-99509276D02*
X50828560Y-89573560D01*
X63690725Y-112371441D02*
X50828560Y-99509276D01*
%TO.N,/CPU_D2*%
X50329040Y-99716184D02*
X50329040Y-91614040D01*
X63483816Y-112870960D02*
X50329040Y-99716184D01*
X85085000Y-114945000D02*
X83010960Y-112870960D01*
X50329040Y-91614040D02*
X48255000Y-89540000D01*
X83010960Y-112870960D02*
X63483816Y-112870960D01*
%TO.N,/A18*%
X86546994Y-98976520D02*
X85375000Y-97804526D01*
X168534000Y-110236000D02*
X166878000Y-110236000D01*
X123910734Y-110458734D02*
X120650000Y-107198000D01*
X165354000Y-111760000D02*
X155670180Y-111760000D01*
X155670180Y-111760000D02*
X155246621Y-112183559D01*
X155246621Y-112183559D02*
X133900560Y-112183559D01*
X171445000Y-107325000D02*
X168534000Y-110236000D01*
X166878000Y-110236000D02*
X165354000Y-111760000D01*
X133900560Y-112183559D02*
X132175734Y-110458734D01*
X132175734Y-110458734D02*
X123910734Y-110458734D01*
X85375000Y-97804526D02*
X85375000Y-90037500D01*
%TO.N,/A17*%
X84875481Y-91225481D02*
X84575000Y-90925000D01*
X87428155Y-99515845D02*
X87153175Y-99790825D01*
X84575000Y-90925000D02*
X84575000Y-90037500D01*
X155039712Y-111684040D02*
X155480232Y-111243520D01*
X84875480Y-98400331D02*
X84875481Y-97597617D01*
X123190000Y-107198000D02*
X125951214Y-109959214D01*
X87761479Y-99515845D02*
X87428155Y-99515845D01*
X155480232Y-111243520D02*
X164986480Y-111243520D01*
X132382643Y-109959215D02*
X134107469Y-111684040D01*
X164986480Y-111243520D02*
X168905000Y-107325000D01*
X84875481Y-97597617D02*
X84875481Y-91225481D01*
X134107469Y-111684040D02*
X155039712Y-111684040D01*
X86265974Y-99790825D02*
X84875480Y-98400331D01*
X125951214Y-109959214D02*
X132382643Y-109959215D01*
X87153175Y-99790825D02*
X86265974Y-99790825D01*
%TO.N,/A16*%
X84375961Y-98607239D02*
X84375961Y-91440000D01*
X154832805Y-111184520D02*
X134314376Y-111184520D01*
X134314376Y-111184520D02*
X130810000Y-107680144D01*
X88431655Y-100290345D02*
X86059067Y-100290345D01*
X166365000Y-107640000D02*
X163261000Y-110744000D01*
X83775000Y-90839039D02*
X83775000Y-90037500D01*
X86059067Y-100290345D02*
X84375961Y-98607239D01*
X163261000Y-110744000D02*
X155273325Y-110744000D01*
X84375961Y-91440000D02*
X83775000Y-90839039D01*
X166365000Y-107325000D02*
X166365000Y-107640000D01*
X88900000Y-99822000D02*
X88431655Y-100290345D01*
X130810000Y-107680144D02*
X130810000Y-107198000D01*
X155273325Y-110744000D02*
X154832805Y-111184520D01*
%TO.N,/A0*%
X87320326Y-80559980D02*
X109249448Y-80559980D01*
X193802000Y-84582000D02*
X153122284Y-84582000D01*
X120904000Y-72136000D02*
X116205000Y-76835000D01*
X86175000Y-79567781D02*
X86175000Y-78862500D01*
X140676284Y-72136002D02*
X139954000Y-72136000D01*
X114130965Y-78909035D02*
X116205000Y-76835000D01*
X87036643Y-80276297D02*
X87320326Y-80559980D01*
X109249448Y-80559980D02*
X110900395Y-78909035D01*
X110900395Y-78909035D02*
X114130965Y-78909035D01*
X87036643Y-80276297D02*
X86883516Y-80276297D01*
X153122284Y-84582000D02*
X140676284Y-72136002D01*
X201290000Y-92070000D02*
X193802000Y-84582000D01*
X139954000Y-72136000D02*
X120904000Y-72136000D01*
X86883516Y-80276297D02*
X86175000Y-79567781D01*
%TO.N,/A1*%
X191761520Y-85081520D02*
X198750000Y-92070000D01*
X85375000Y-79863106D02*
X85375000Y-78862500D01*
X109456357Y-81059499D02*
X111107302Y-79408555D01*
X140469376Y-72635521D02*
X140761987Y-72928133D01*
X122944480Y-72635520D02*
X140469376Y-72635521D01*
X86011083Y-80499189D02*
X85375000Y-79863106D01*
X111107302Y-79408555D02*
X116171445Y-79408555D01*
X86011083Y-80499189D02*
X86571393Y-81059499D01*
X152915376Y-85081520D02*
X191761520Y-85081520D01*
X86571393Y-81059499D02*
X109456357Y-81059499D01*
X116171445Y-79408555D02*
X118745000Y-76835000D01*
X118745000Y-76835000D02*
X122944480Y-72635520D01*
X140761987Y-72928133D02*
X152915376Y-85081520D01*
%TO.N,/A2*%
X85105724Y-81030020D02*
X85634722Y-81559018D01*
X85094020Y-81030020D02*
X84575000Y-80511000D01*
X109663266Y-81559018D02*
X111314209Y-79908075D01*
X85634722Y-81559018D02*
X109663266Y-81559018D01*
X124984960Y-73135040D02*
X121285000Y-76835000D01*
X118211925Y-79908075D02*
X121285000Y-76835000D01*
X140262467Y-73135040D02*
X124984960Y-73135040D01*
X84575000Y-78862500D02*
X84575000Y-80511000D01*
X111314209Y-79908075D02*
X118211925Y-79908075D01*
X152725428Y-85598000D02*
X140262467Y-73135040D01*
X85105724Y-81030020D02*
X85094020Y-81030020D01*
X189738000Y-85598000D02*
X152725428Y-85598000D01*
X196210000Y-92070000D02*
X189738000Y-85598000D01*
%TO.N,/A3*%
X152518520Y-86097520D02*
X187697520Y-86097520D01*
X84116490Y-81529540D02*
X84645479Y-82058529D01*
X187697520Y-86097520D02*
X193670000Y-92070000D01*
X109870183Y-82058529D02*
X111521119Y-80407595D01*
X140055560Y-73634560D02*
X152518520Y-86097520D01*
X84116490Y-81529540D02*
X83775000Y-81188050D01*
X83775000Y-81188050D02*
X83775000Y-78862500D01*
X127025440Y-73634560D02*
X140055560Y-73634560D01*
X123825000Y-76835000D02*
X127025440Y-73634560D01*
X111521119Y-80407595D02*
X120252405Y-80407595D01*
X84645479Y-82058529D02*
X109870183Y-82058529D01*
X120252405Y-80407595D02*
X123825000Y-76835000D01*
%TO.N,/A4*%
X83117288Y-82029060D02*
X83646276Y-82558048D01*
X111728026Y-80907115D02*
X122292885Y-80907115D01*
X83646276Y-82558048D02*
X110077092Y-82558048D01*
X82975000Y-81886772D02*
X82975000Y-78862500D01*
X122292885Y-80907115D02*
X126365000Y-76835000D01*
X110077092Y-82558048D02*
X111728026Y-80907115D01*
X83117288Y-82029060D02*
X82975000Y-81886772D01*
%TO.N,~{RAM}*%
X117077040Y-101583040D02*
X111252000Y-95758000D01*
X151558675Y-104140000D02*
X149001715Y-101583040D01*
X82042000Y-78995500D02*
X82175000Y-78862500D01*
X82042000Y-82283069D02*
X82042000Y-78995500D01*
X152146000Y-104140000D02*
X151558675Y-104140000D01*
X149001715Y-101583040D02*
X117077040Y-101583040D01*
%TO.N,/D0*%
X112090480Y-78409520D02*
X110693480Y-78409520D01*
X81825415Y-77725480D02*
X81375000Y-78175895D01*
X88124585Y-77725480D02*
X81825415Y-77725480D01*
X99110000Y-87376000D02*
X99110011Y-87376011D01*
X109317531Y-79785469D02*
X99110000Y-79785469D01*
X94869000Y-98313855D02*
X94869000Y-100965000D01*
X92705000Y-103129000D02*
X92705000Y-107325000D01*
X90184574Y-79785469D02*
X88124585Y-77725480D01*
X94869000Y-100965000D02*
X92705000Y-103129000D01*
X99110011Y-94072844D02*
X94869000Y-98313855D01*
X90184574Y-79785469D02*
X99110000Y-79785469D01*
X99110011Y-87376011D02*
X99110011Y-94072844D01*
X113665000Y-76835000D02*
X112090480Y-78409520D01*
X110693480Y-78409520D02*
X109317531Y-79785469D01*
X81375000Y-78175895D02*
X81375000Y-78862500D01*
%TO.N,/D1*%
X81526415Y-77224480D02*
X88330013Y-77224480D01*
X98335500Y-94140927D02*
X98335500Y-88138000D01*
X90165000Y-107325000D02*
X90165000Y-104962572D01*
X94369480Y-100758092D02*
X94369480Y-98106947D01*
X108949031Y-79010969D02*
X111125000Y-76835000D01*
X88330013Y-77224480D02*
X90116502Y-79010969D01*
X98335500Y-79010969D02*
X108949031Y-79010969D01*
X90165000Y-104962572D02*
X94369480Y-100758092D01*
X94369480Y-98106947D02*
X98335500Y-94140927D01*
X90116502Y-79010969D02*
X98335500Y-79010969D01*
X80575000Y-78862500D02*
X80575000Y-78175895D01*
X80575000Y-78175895D02*
X81526415Y-77224480D01*
%TO.N,/D2*%
X87625000Y-107325000D02*
X87625000Y-106796144D01*
X93869960Y-97900040D02*
X97561000Y-94209000D01*
X105156000Y-78486000D02*
X108204000Y-78486000D01*
X73274480Y-71426316D02*
X73640316Y-71060480D01*
X108204000Y-78486000D02*
X108585000Y-78105000D01*
X73274480Y-75941480D02*
X73274480Y-71426316D01*
X90048430Y-78236469D02*
X97561000Y-78236469D01*
X93869960Y-100551184D02*
X93869960Y-97900040D01*
X73640316Y-71060480D02*
X80458480Y-71060480D01*
X80458480Y-71060480D02*
X86122960Y-76724960D01*
X97561000Y-94209000D02*
X97561000Y-87376000D01*
X73795480Y-76462480D02*
X73274480Y-75941480D01*
X108585000Y-78105000D02*
X108585000Y-76835000D01*
X78175000Y-78862500D02*
X78175000Y-78175895D01*
X97561000Y-78236469D02*
X104906469Y-78236469D01*
X76461586Y-76462481D02*
X73795480Y-76462480D01*
X88536920Y-76724960D02*
X90048430Y-78236469D01*
X78175000Y-78175895D02*
X76461586Y-76462481D01*
X104906469Y-78236469D02*
X105156000Y-78486000D01*
X86122960Y-76724960D02*
X88536920Y-76724960D01*
X87625000Y-106796144D02*
X93869960Y-100551184D01*
%TO.N,/D3*%
X93370440Y-100344276D02*
X87964236Y-105750480D01*
X76161105Y-76962000D02*
X77375000Y-78175895D01*
X89980358Y-77461969D02*
X88743830Y-76225441D01*
X80665389Y-70560961D02*
X73433407Y-70560961D01*
X96786500Y-91948000D02*
X96786500Y-94277072D01*
X77375000Y-78175895D02*
X77375000Y-78862500D01*
X88743830Y-76225441D02*
X86329869Y-76225441D01*
X96786500Y-77461969D02*
X89980358Y-77461969D01*
X96786500Y-94277072D02*
X93370440Y-97693132D01*
X73588573Y-76962000D02*
X76161105Y-76962000D01*
X86659520Y-105750480D02*
X85085000Y-107325000D01*
X73433407Y-70560961D02*
X72774960Y-71219408D01*
X72774960Y-76148387D02*
X73588573Y-76962000D01*
X87964236Y-105750480D02*
X86659520Y-105750480D01*
X86329869Y-76225441D02*
X80665389Y-70560961D01*
X72774960Y-71219408D02*
X72774960Y-76148387D01*
X93370440Y-97693132D02*
X93370440Y-100344276D01*
%TO.N,/A5*%
X77999000Y-83057580D02*
X110283988Y-83057580D01*
X77360580Y-82528580D02*
X75775000Y-80943000D01*
X75775000Y-80943000D02*
X75775000Y-78862500D01*
X124333365Y-81406635D02*
X128905000Y-76835000D01*
X110283988Y-83057580D02*
X111934933Y-81406635D01*
X77470000Y-82528580D02*
X77999000Y-83057580D01*
X111934933Y-81406635D02*
X124333365Y-81406635D01*
X77470000Y-82528580D02*
X77360580Y-82528580D01*
%TO.N,/A6*%
X131445000Y-76835000D02*
X126373846Y-81906154D01*
X76925187Y-83557100D02*
X76438587Y-83070500D01*
X76438587Y-83070500D02*
X76438587Y-83042587D01*
X110490895Y-83557100D02*
X76925187Y-83557100D01*
X76438587Y-83042587D02*
X74975000Y-81579000D01*
X126373846Y-81906154D02*
X112141841Y-81906154D01*
X112141841Y-81906154D02*
X110490895Y-83557100D01*
X74975000Y-78862500D02*
X74975000Y-81579000D01*
%TO.N,/A7*%
X75496244Y-83570020D02*
X75982843Y-84056619D01*
X75982843Y-84056619D02*
X110697804Y-84056619D01*
X112348749Y-82405674D02*
X113520674Y-82405674D01*
X74168000Y-82296000D02*
X74168000Y-82056000D01*
X113520674Y-82405674D02*
X113538000Y-82423000D01*
X74175000Y-78862500D02*
X74175000Y-82049000D01*
X113538000Y-82423000D02*
X128397000Y-82423000D01*
X75496244Y-83570020D02*
X75442020Y-83570020D01*
X74168000Y-82056000D02*
X74175000Y-82049000D01*
X128397000Y-82423000D02*
X133985000Y-76835000D01*
X110697804Y-84056619D02*
X112348749Y-82405674D01*
X75442020Y-83570020D02*
X74168000Y-82296000D01*
%TO.N,/A8*%
X73375000Y-82874744D02*
X73375000Y-78862500D01*
X74577394Y-84077138D02*
X75056394Y-84556138D01*
X153665000Y-101849000D02*
X151900479Y-100084480D01*
X116272235Y-84556138D02*
X116508425Y-84319949D01*
X123689949Y-84319949D02*
X131445000Y-92075000D01*
X116508425Y-84319949D02*
X123689949Y-84319949D01*
X153665000Y-107325000D02*
X153665000Y-101849000D01*
X139454480Y-100084480D02*
X131445000Y-92075000D01*
X74577394Y-84077138D02*
X73375000Y-82874744D01*
X75056394Y-84556138D02*
X116272235Y-84556138D01*
X151900479Y-100084480D02*
X139454480Y-100084480D01*
%TO.N,/A9*%
X116715332Y-84819469D02*
X121649469Y-84819469D01*
X73542614Y-84594500D02*
X73542614Y-83956614D01*
X74460588Y-85055657D02*
X116479143Y-85055657D01*
X72575000Y-78862500D02*
X72575000Y-82989000D01*
X73802883Y-84334231D02*
X73802883Y-84397952D01*
X73542614Y-83956614D02*
X72575000Y-82989000D01*
X121649469Y-84819469D02*
X128905000Y-92075000D01*
X73542614Y-84594500D02*
X73802883Y-84334231D01*
X73802883Y-84397952D02*
X74460588Y-85055657D01*
X116479143Y-85055657D02*
X116715332Y-84819469D01*
%TO.N,/A10*%
X121285000Y-92075000D02*
X121285000Y-88265000D01*
X157170480Y-108899520D02*
X153178498Y-108899520D01*
X158745000Y-107325000D02*
X157170480Y-108899520D01*
X152490480Y-108211502D02*
X152490480Y-106438498D01*
X152490480Y-106438498D02*
X153162000Y-105766978D01*
X123190000Y-100584000D02*
X121285000Y-98679000D01*
X153162000Y-102052428D02*
X151693572Y-100584000D01*
X153162000Y-105766978D02*
X153162000Y-102052428D01*
X73579085Y-85555177D02*
X73294762Y-85839500D01*
X116922239Y-85318989D02*
X116686051Y-85555177D01*
X118338989Y-85318989D02*
X116922239Y-85318989D01*
X73375000Y-90037500D02*
X73375000Y-85883000D01*
X121285000Y-88265000D02*
X118338989Y-85318989D01*
X121285000Y-98679000D02*
X121285000Y-92075000D01*
X151693572Y-100584000D02*
X123190000Y-100584000D01*
X153178498Y-108899520D02*
X152490480Y-108211502D01*
X116686051Y-85555177D02*
X73579085Y-85555177D01*
%TO.N,/A11*%
X117243053Y-86093500D02*
X117239033Y-86097520D01*
X74168000Y-90030500D02*
X74175000Y-90037500D01*
X120396000Y-86093500D02*
X120396000Y-86106000D01*
X75179980Y-86097520D02*
X74168000Y-87109500D01*
X74168000Y-87109500D02*
X74168000Y-90030500D01*
X120396000Y-86106000D02*
X126365000Y-92075000D01*
X117239033Y-86097520D02*
X75179980Y-86097520D01*
%TO.N,/A12*%
X76236460Y-86597040D02*
X75079500Y-87754000D01*
X74975000Y-87909500D02*
X74975000Y-90037500D01*
X127762000Y-85851989D02*
X127762000Y-85598000D01*
X75079500Y-87754000D02*
X75079500Y-87884000D01*
X115316000Y-86872020D02*
X115041020Y-86597040D01*
X127762000Y-85598000D02*
X136525000Y-76835000D01*
X74949500Y-87884000D02*
X74975000Y-87909500D01*
X136525000Y-76835000D02*
X136525000Y-80025000D01*
X115041020Y-86597040D02*
X76236460Y-86597040D01*
X136525000Y-80025000D02*
X163825000Y-107325000D01*
%TO.N,/A13*%
X67576511Y-91681489D02*
X73151989Y-91681489D01*
X75241426Y-91681500D02*
X75775000Y-91147926D01*
X73152000Y-91681500D02*
X75241426Y-91681500D01*
X75775000Y-91147926D02*
X75775000Y-90037500D01*
X67564000Y-91694000D02*
X67576511Y-91681489D01*
X73151989Y-91681489D02*
X73152000Y-91681500D01*
%TO.N,/A14*%
X67884814Y-92468511D02*
X67243186Y-92468511D01*
X67230675Y-92456000D02*
X64262000Y-92456000D01*
X75173354Y-92456000D02*
X76575000Y-91054354D01*
X71120000Y-92456000D02*
X75173354Y-92456000D01*
X71120000Y-92456000D02*
X67897325Y-92456000D01*
X64262000Y-92456000D02*
X64257701Y-92451701D01*
X76575000Y-91054354D02*
X76575000Y-90037500D01*
X67243186Y-92468511D02*
X67230675Y-92456000D01*
X67897325Y-92456000D02*
X67884814Y-92468511D01*
%TO.N,/D4*%
X77375000Y-90960782D02*
X77375000Y-90037500D01*
X96419502Y-108899520D02*
X96419509Y-108899513D01*
X96419509Y-108899513D02*
X96419509Y-107201207D01*
X75946000Y-92389782D02*
X77375000Y-90960782D01*
X75946000Y-100726000D02*
X75946000Y-92389782D01*
X82545000Y-107325000D02*
X82545000Y-107725000D01*
X83719520Y-108899520D02*
X96419502Y-108899520D01*
X82545000Y-107725000D02*
X83719520Y-108899520D01*
X96419509Y-107201207D02*
X108585000Y-95035716D01*
X82545000Y-107325000D02*
X75946000Y-100726000D01*
X108585000Y-95035716D02*
X108585000Y-92075000D01*
%TO.N,/D5*%
X111125000Y-93202144D02*
X111125000Y-92075000D01*
X82079040Y-109399040D02*
X96626409Y-109399040D01*
X80010000Y-103644500D02*
X80010000Y-103632000D01*
X76454000Y-100076000D02*
X76454000Y-92588210D01*
X78175000Y-90867210D02*
X78175000Y-90037500D01*
X76454000Y-92588210D02*
X78175000Y-90867210D01*
X80005000Y-107325000D02*
X82079040Y-109399040D01*
X80010000Y-103632000D02*
X76454000Y-100076000D01*
X96626409Y-109399040D02*
X96919029Y-109106420D01*
X96919029Y-109106420D02*
X96919031Y-107408113D01*
X96919031Y-107408113D02*
X111125000Y-93202144D01*
%TO.N,/D6*%
X97418550Y-107615022D02*
X111053573Y-93980000D01*
X111760000Y-93980000D02*
X113665000Y-92075000D01*
X80038559Y-109898559D02*
X96833318Y-109898559D01*
X80575000Y-90735000D02*
X80575000Y-90037500D01*
X97418549Y-109313326D02*
X97418550Y-107615022D01*
X96833318Y-109898559D02*
X97418549Y-109313326D01*
X111053573Y-93980000D02*
X111760000Y-93980000D01*
X82062020Y-102849969D02*
X82062020Y-92222020D01*
X82062020Y-92222020D02*
X80575000Y-90735000D01*
X82042000Y-102869989D02*
X82062020Y-102849969D01*
X77465000Y-107325000D02*
X80038559Y-109898559D01*
%TO.N,/D7*%
X111260480Y-94479520D02*
X113800480Y-94479520D01*
X97918069Y-107821931D02*
X111260480Y-94479520D01*
X82804000Y-101346000D02*
X82804000Y-91694000D01*
X77998078Y-110398078D02*
X97040228Y-110398078D01*
X81836895Y-91186000D02*
X81375000Y-90724105D01*
X82804000Y-91694000D02*
X82296000Y-91186000D01*
X82296000Y-91186000D02*
X81836895Y-91186000D01*
X74925000Y-107325000D02*
X77998078Y-110398078D01*
X81375000Y-90724105D02*
X81375000Y-90037500D01*
X83058000Y-101600000D02*
X82804000Y-101346000D01*
X97040228Y-110398078D02*
X97918069Y-109520237D01*
X113800480Y-94479520D02*
X116205000Y-92075000D01*
X97918069Y-109520237D02*
X97918069Y-107821931D01*
%TO.N,/A15*%
X63936887Y-93226212D02*
X63928675Y-93218000D01*
X82975000Y-90745467D02*
X82975000Y-90037500D01*
X83601461Y-98252020D02*
X83601461Y-91371928D01*
X69075500Y-93218000D02*
X64586727Y-93218000D01*
X83601461Y-91371928D02*
X82975000Y-90745467D01*
X63928675Y-93218000D02*
X60960000Y-93218000D01*
X69088000Y-93230500D02*
X69075500Y-93218000D01*
X64586727Y-93218000D02*
X64578515Y-93226212D01*
X64578515Y-93226212D02*
X63936887Y-93226212D01*
%TO.N,VPA*%
X157480000Y-116819020D02*
X155739500Y-118559520D01*
X30734000Y-84201000D02*
X33015000Y-81920000D01*
X155739500Y-118559520D02*
X34573498Y-118559520D01*
X30734000Y-114720022D02*
X30734000Y-84201000D01*
X34573498Y-118559520D02*
X30734000Y-114720022D01*
%TO.N,/CPU_D7*%
X51440000Y-102240000D02*
X48255000Y-102240000D01*
X72385000Y-114945000D02*
X64145000Y-114945000D01*
X64145000Y-114945000D02*
X51440000Y-102240000D01*
%TO.N,/CPU_D6*%
X46680480Y-102822960D02*
X46680480Y-101274520D01*
X74925000Y-114945000D02*
X73350480Y-116519520D01*
X47272040Y-103414520D02*
X46680480Y-102822960D01*
X46680480Y-101274520D02*
X48255000Y-99700000D01*
X65013092Y-116519520D02*
X51908092Y-103414520D01*
X51908092Y-103414520D02*
X47272040Y-103414520D01*
X73350480Y-116519520D02*
X65013092Y-116519520D01*
%TO.N,/CPU_D5*%
X64806184Y-117019039D02*
X63682572Y-115895428D01*
X46180961Y-99234039D02*
X48255000Y-97160000D01*
X47559458Y-106145480D02*
X46180961Y-104766983D01*
X77465000Y-114945000D02*
X75390961Y-117019039D01*
X53932624Y-106145480D02*
X47559458Y-106145480D01*
X63682572Y-115895428D02*
X53932624Y-106145480D01*
X75390961Y-117019039D02*
X64806184Y-117019039D01*
X46180961Y-104766983D02*
X46180961Y-99234039D01*
%TO.N,/CPU_D4*%
X45681441Y-106807463D02*
X45681441Y-97193559D01*
X47559458Y-108685480D02*
X45681441Y-106807463D01*
X45681441Y-97193559D02*
X48255000Y-94620000D01*
X64641196Y-117560480D02*
X55766196Y-108685480D01*
X55766196Y-108685480D02*
X47559458Y-108685480D01*
X80066000Y-115006000D02*
X77511520Y-117560480D01*
X80005000Y-114945000D02*
X80066000Y-115006000D01*
X77511520Y-117560480D02*
X64641196Y-117560480D01*
%TO.N,/CPU_D3*%
X80970480Y-113370480D02*
X63276908Y-113370480D01*
X82545000Y-114945000D02*
X80970480Y-113370480D01*
X49829520Y-99923092D02*
X49829520Y-93654520D01*
X63276908Y-113370480D02*
X49829520Y-99923092D01*
X49829520Y-93654520D02*
X48255000Y-92080000D01*
%TO.N,VDA*%
X148585000Y-114945000D02*
X144897000Y-114945000D01*
X45181921Y-108847943D02*
X45181921Y-72293079D01*
X57408808Y-111034520D02*
X47368498Y-111034520D01*
X47368498Y-111034520D02*
X45181921Y-108847943D01*
X141782000Y-118060000D02*
X64434287Y-118059999D01*
X45181921Y-72293079D02*
X48255000Y-69220000D01*
X64434287Y-118059999D02*
X57408808Y-111034520D01*
X144897000Y-114945000D02*
X141782000Y-118060000D01*
%TO.N,~{CLK}*%
X196056480Y-106925000D02*
X196056480Y-107325000D01*
X141346701Y-75661251D02*
X141346701Y-82418701D01*
X194287480Y-105156000D02*
X196056480Y-106925000D01*
X164084000Y-105156000D02*
X194287480Y-105156000D01*
X128270000Y-74409500D02*
X140094950Y-74409500D01*
X140094950Y-74409500D02*
X141346701Y-75661251D01*
X141346701Y-82418701D02*
X164084000Y-105156000D01*
%TO.N,~{ROM}*%
X118745000Y-92075000D02*
X118745000Y-97536000D01*
X149597520Y-101083520D02*
X151638000Y-103124000D01*
X118745000Y-97536000D02*
X122292520Y-101083520D01*
X122292520Y-101083520D02*
X149597520Y-101083520D01*
%TO.N,/X*%
X176772459Y-112251039D02*
X201041000Y-112251040D01*
X176264460Y-111743040D02*
X176772459Y-112251039D01*
X201036440Y-112251040D02*
X201057960Y-112251040D01*
X201057960Y-112251040D02*
X205962480Y-107346520D01*
X167500489Y-113540489D02*
X167500489Y-112407511D01*
X168164960Y-111743040D02*
X176264460Y-111743040D01*
X168905000Y-114945000D02*
X167500489Y-113540489D01*
X167500489Y-112407511D02*
X168164960Y-111743040D01*
X205962480Y-107346520D02*
X205962480Y-107325000D01*
%TO.N,/Y*%
X166370000Y-112268000D02*
X167394480Y-111243520D01*
X199017480Y-111751520D02*
X203422480Y-107346520D01*
X203422480Y-107346520D02*
X203422480Y-107325000D01*
X176471368Y-111243520D02*
X176979369Y-111751520D01*
X166370000Y-114940000D02*
X166370000Y-112268000D01*
X166365000Y-114945000D02*
X166370000Y-114940000D01*
X176979369Y-111751520D02*
X199009000Y-111751520D01*
X167394480Y-111243520D02*
X176471368Y-111243520D01*
%TO.N,/Z*%
X163825000Y-114945000D02*
X163825000Y-114559000D01*
X197022960Y-111184520D02*
X200882480Y-107325000D01*
X176678276Y-110744000D02*
X177118796Y-111184520D01*
X165366511Y-112509489D02*
X167132000Y-110744000D01*
X163825000Y-114559000D02*
X165366511Y-113017489D01*
X165366511Y-113017489D02*
X165366511Y-112509489D01*
X177118796Y-111184520D02*
X197022960Y-111184520D01*
X167132000Y-110744000D02*
X176678276Y-110744000D01*
%TO.N,/VALID*%
X200257480Y-105410000D02*
X198342480Y-107325000D01*
X180084920Y-112750560D02*
X202597942Y-112750560D01*
X161285000Y-114945000D02*
X162859520Y-116519520D01*
X206108502Y-105410000D02*
X200257480Y-105410000D01*
X162859520Y-116519520D02*
X176342480Y-116519520D01*
X176315960Y-116519520D02*
X180084920Y-112750560D01*
X207137000Y-108211502D02*
X207137000Y-106438498D01*
X207137000Y-106438498D02*
X206108502Y-105410000D01*
X202597942Y-112750560D02*
X207137000Y-108211502D01*
D40*
%TO.N,+9V*%
X177106000Y-71628000D02*
X179906000Y-68828000D01*
X175806500Y-71628000D02*
X173906980Y-73527520D01*
X175806500Y-71628000D02*
X177106000Y-71628000D01*
X154045520Y-73527520D02*
X135382000Y-54864000D01*
X50511059Y-56134000D02*
X39320000Y-56134000D01*
X56314559Y-48443000D02*
X55697000Y-48443000D01*
X57003059Y-54864000D02*
X54392059Y-52253000D01*
X59037559Y-45720000D02*
X86360000Y-45720000D01*
X54392059Y-52253000D02*
X50511059Y-56134000D01*
X54392059Y-49747941D02*
X54392059Y-52253000D01*
X55697000Y-48443000D02*
X54392059Y-49747941D01*
X56314559Y-48443000D02*
X59037559Y-45720000D01*
X173906980Y-73527520D02*
X154045520Y-73527520D01*
X135382000Y-54864000D02*
X57003059Y-54864000D01*
D39*
%TO.N,/uSD_CS*%
X192921079Y-60452000D02*
X195326000Y-62856921D01*
X194296070Y-48006000D02*
X194296070Y-48598000D01*
X195326000Y-62856921D02*
X195326000Y-63565000D01*
X194296070Y-48598000D02*
X192921079Y-49972991D01*
X192921079Y-49972991D02*
X192921079Y-60452000D01*
%TO.N,/uSD_MOSI*%
X192421559Y-46973952D02*
X192421559Y-61483776D01*
X195070581Y-46881489D02*
X195396070Y-47206978D01*
X192514022Y-46881489D02*
X195070581Y-46881489D01*
X195396070Y-47206978D02*
X195396070Y-48006000D01*
X194056000Y-63118217D02*
X194056000Y-63565000D01*
X192421559Y-61483776D02*
X194056000Y-63118217D01*
X192421559Y-46973952D02*
X192514022Y-46881489D01*
%TO.N,/uSD_CLK*%
X191922039Y-62254256D02*
X192786000Y-63118217D01*
X197596070Y-47206978D02*
X196771061Y-46381969D01*
X196771061Y-46381969D02*
X192214652Y-46381969D01*
X192214652Y-46381969D02*
X191922039Y-46674582D01*
X197596070Y-48006000D02*
X197596070Y-47206978D01*
X192786000Y-63118217D02*
X192786000Y-63565000D01*
X191922039Y-46674582D02*
X191922039Y-62254256D01*
%TO.N,/uSD_MISO*%
X191422520Y-46467673D02*
X191525852Y-46364341D01*
X199796070Y-47358000D02*
X199796070Y-48006000D01*
X191422519Y-46467675D02*
X191525852Y-46364341D01*
X192007745Y-45882449D02*
X198320519Y-45882449D01*
X191422520Y-63471520D02*
X191422520Y-46467673D01*
X191525852Y-46364341D02*
X192007745Y-45882449D01*
X191516000Y-63565000D02*
X191422520Y-63471520D01*
X198320519Y-45882449D02*
X199796070Y-47358000D01*
%TO.N,/RESB*%
X58232000Y-76266000D02*
X59006500Y-76266000D01*
X48255000Y-66680000D02*
X56282000Y-66680000D01*
X56440000Y-66838000D02*
X55065489Y-68212511D01*
X56282000Y-66680000D02*
X56440000Y-66838000D01*
X55065489Y-68212511D02*
X55065489Y-73099489D01*
X62940000Y-66838000D02*
X56440000Y-66838000D01*
X55065489Y-73099489D02*
X58232000Y-76266000D01*
%TO.N,/RWB*%
X72263000Y-71024940D02*
X72263000Y-77470000D01*
X89912286Y-76687469D02*
X88950737Y-75725921D01*
X95245000Y-107325000D02*
X95245000Y-103383000D01*
X80872298Y-70061442D02*
X73226498Y-70061442D01*
X75946000Y-77470000D02*
X76575000Y-78099000D01*
X48255000Y-81920000D02*
X66162000Y-81920000D01*
X99298082Y-94980083D02*
X99298082Y-99298082D01*
X66162000Y-81920000D02*
X70612000Y-77470000D01*
X95245000Y-103383000D02*
X99314000Y-99314000D01*
X70612000Y-77470000D02*
X72263000Y-77470000D01*
X96012000Y-76687469D02*
X89912286Y-76687469D01*
X86536777Y-75725921D02*
X80872298Y-70061442D01*
X88950737Y-75725921D02*
X86536777Y-75725921D01*
X76575000Y-78099000D02*
X76575000Y-78862500D01*
X99298082Y-99298082D02*
X99314000Y-99314000D01*
X73226498Y-70061442D02*
X72263000Y-71024940D01*
X72263000Y-77470000D02*
X75946000Y-77470000D01*
%TO.N,/IRQB*%
X156586000Y-92070000D02*
X158110000Y-92070000D01*
X142240000Y-77724000D02*
X156586000Y-92070000D01*
%TO.N,/uSD_CS_5V*%
X198750000Y-76830000D02*
X195326000Y-73406000D01*
X195326000Y-73406000D02*
X195326000Y-68515000D01*
%TO.N,/uSD_MOSI_5V*%
X194056000Y-74676000D02*
X194056000Y-68515000D01*
X196210000Y-76830000D02*
X194056000Y-74676000D01*
%TO.N,/uSD_CLK_5V*%
X193670000Y-76830000D02*
X192786000Y-75946000D01*
X192786000Y-75946000D02*
X192786000Y-68515000D01*
%TO.N,/CLK\u002A2*%
X90170000Y-60452000D02*
X89662000Y-59944000D01*
X112776000Y-60452000D02*
X90170000Y-60452000D01*
%TO.N,/uSD_MISO_5V*%
X191516000Y-76454000D02*
X191516000Y-68515000D01*
X191140000Y-76830000D02*
X191516000Y-76454000D01*
X191130000Y-76830000D02*
X191140000Y-76830000D01*
%TD*%
M02*
