%TF.GenerationSoftware,KiCad,Pcbnew,(6.0.5)*%
%TF.CreationDate,2022-09-15T01:10:35+02:00*%
%TF.ProjectId,65816 computer,36353831-3620-4636-9f6d-70757465722e,rev?*%
%TF.SameCoordinates,Original*%
%TF.FileFunction,Soldermask,Top*%
%TF.FilePolarity,Negative*%
%FSLAX46Y46*%
G04 Gerber Fmt 4.6, Leading zero omitted, Abs format (unit mm)*
G04 Created by KiCad (PCBNEW (6.0.5)) date 2022-09-15 01:10:35*
%MOMM*%
%LPD*%
G01*
G04 APERTURE LIST*
G04 Aperture macros list*
%AMRoundRect*
0 Rectangle with rounded corners*
0 $1 Rounding radius*
0 $2 $3 $4 $5 $6 $7 $8 $9 X,Y pos of 4 corners*
0 Add a 4 corners polygon primitive as box body*
4,1,4,$2,$3,$4,$5,$6,$7,$8,$9,$2,$3,0*
0 Add four circle primitives for the rounded corners*
1,1,$1+$1,$2,$3*
1,1,$1+$1,$4,$5*
1,1,$1+$1,$6,$7*
1,1,$1+$1,$8,$9*
0 Add four rect primitives between the rounded corners*
20,1,$1+$1,$2,$3,$4,$5,0*
20,1,$1+$1,$4,$5,$6,$7,0*
20,1,$1+$1,$6,$7,$8,$9,0*
20,1,$1+$1,$8,$9,$2,$3,0*%
G04 Aperture macros list end*
%ADD10RoundRect,0.250000X-0.650000X0.412500X-0.650000X-0.412500X0.650000X-0.412500X0.650000X0.412500X0*%
%ADD11RoundRect,0.250000X-0.412500X-0.650000X0.412500X-0.650000X0.412500X0.650000X-0.412500X0.650000X0*%
%ADD12R,1.600000X2.400000*%
%ADD13O,1.600000X2.400000*%
%ADD14R,4.600000X2.000000*%
%ADD15O,4.200000X2.000000*%
%ADD16O,2.000000X4.200000*%
%ADD17RoundRect,0.250000X0.650000X-0.412500X0.650000X0.412500X-0.650000X0.412500X-0.650000X-0.412500X0*%
%ADD18C,2.000000*%
%ADD19RoundRect,0.137500X-0.137500X0.625000X-0.137500X-0.625000X0.137500X-0.625000X0.137500X0.625000X0*%
%ADD20C,3.000000*%
%ADD21R,2.200000X1.200000*%
%ADD22R,6.400000X5.800000*%
%ADD23C,1.600000*%
%ADD24O,1.600000X1.600000*%
%ADD25RoundRect,0.250000X0.412500X0.650000X-0.412500X0.650000X-0.412500X-0.650000X0.412500X-0.650000X0*%
%ADD26R,2.400000X1.600000*%
%ADD27O,2.400000X1.600000*%
%ADD28RoundRect,0.150000X-0.587500X-0.150000X0.587500X-0.150000X0.587500X0.150000X-0.587500X0.150000X0*%
%ADD29R,1.600000X1.600000*%
%ADD30C,1.650000*%
%ADD31C,3.450000*%
%ADD32R,1.700000X1.700000*%
%ADD33O,1.700000X1.700000*%
%ADD34RoundRect,0.150000X-0.150000X0.825000X-0.150000X-0.825000X0.150000X-0.825000X0.150000X0.825000X0*%
%ADD35R,0.800000X1.500000*%
%ADD36R,1.450000X2.000000*%
%ADD37R,1.905000X2.000000*%
%ADD38O,1.905000X2.000000*%
G04 APERTURE END LIST*
D10*
%TO.C,C19*%
X97038000Y-64741500D03*
X97038000Y-67866500D03*
%TD*%
D11*
%TO.C,C5*%
X77812500Y-94615000D03*
X80937500Y-94615000D03*
%TD*%
D12*
%TO.C,U10*%
X71882000Y-67564000D03*
D13*
X74422000Y-67564000D03*
X76962000Y-67564000D03*
X79502000Y-67564000D03*
X82042000Y-67564000D03*
X84582000Y-67564000D03*
X87122000Y-67564000D03*
X89662000Y-67564000D03*
X89662000Y-59944000D03*
X87122000Y-59944000D03*
X84582000Y-59944000D03*
X82042000Y-59944000D03*
X79502000Y-59944000D03*
X76962000Y-59944000D03*
X74422000Y-59944000D03*
X71882000Y-59944000D03*
%TD*%
D11*
%TO.C,C1*%
X54392059Y-52253000D03*
X57517059Y-52253000D03*
%TD*%
D14*
%TO.C,J1*%
X39004000Y-56134000D03*
D15*
X39004000Y-49834000D03*
D16*
X34204000Y-53234000D03*
%TD*%
D17*
%TO.C,C16*%
X64770000Y-110147500D03*
X64770000Y-107022500D03*
%TD*%
D18*
%TO.C,SW1*%
X56440000Y-66838000D03*
X62940000Y-66838000D03*
X56440000Y-71338000D03*
X62940000Y-71338000D03*
%TD*%
D10*
%TO.C,C8*%
X74549000Y-72097500D03*
X74549000Y-75222500D03*
%TD*%
D17*
%TO.C,C15*%
X68580000Y-110147500D03*
X68580000Y-107022500D03*
%TD*%
D12*
%TO.C,U4*%
X133345000Y-107325000D03*
D13*
X130805000Y-107325000D03*
X128265000Y-107325000D03*
X125725000Y-107325000D03*
X123185000Y-107325000D03*
X120645000Y-107325000D03*
X118105000Y-107325000D03*
X115565000Y-107325000D03*
X113025000Y-107325000D03*
X110485000Y-107325000D03*
X110485000Y-114945000D03*
X113025000Y-114945000D03*
X115565000Y-114945000D03*
X118105000Y-114945000D03*
X120645000Y-114945000D03*
X123185000Y-114945000D03*
X125725000Y-114945000D03*
X128265000Y-114945000D03*
X130805000Y-114945000D03*
X133345000Y-114945000D03*
%TD*%
D19*
%TO.C,U5*%
X87775000Y-78862500D03*
X86975000Y-78862500D03*
X86175000Y-78862500D03*
X85375000Y-78862500D03*
X84575000Y-78862500D03*
X83775000Y-78862500D03*
X82975000Y-78862500D03*
X82175000Y-78862500D03*
X81375000Y-78862500D03*
X80575000Y-78862500D03*
X79775000Y-78862500D03*
X78975000Y-78862500D03*
X78175000Y-78862500D03*
X77375000Y-78862500D03*
X76575000Y-78862500D03*
X75775000Y-78862500D03*
X74975000Y-78862500D03*
X74175000Y-78862500D03*
X73375000Y-78862500D03*
X72575000Y-78862500D03*
X71775000Y-78862500D03*
X70975000Y-78862500D03*
X70975000Y-90037500D03*
X71775000Y-90037500D03*
X72575000Y-90037500D03*
X73375000Y-90037500D03*
X74175000Y-90037500D03*
X74975000Y-90037500D03*
X75775000Y-90037500D03*
X76575000Y-90037500D03*
X77375000Y-90037500D03*
X78175000Y-90037500D03*
X78975000Y-90037500D03*
X79775000Y-90037500D03*
X80575000Y-90037500D03*
X81375000Y-90037500D03*
X82175000Y-90037500D03*
X82975000Y-90037500D03*
X83775000Y-90037500D03*
X84575000Y-90037500D03*
X85375000Y-90037500D03*
X86175000Y-90037500D03*
X86975000Y-90037500D03*
X87775000Y-90037500D03*
%TD*%
D20*
%TO.C,REF\u002A\u002A*%
X209804000Y-45466000D03*
X209804000Y-45466000D03*
%TD*%
D21*
%TO.C,U3*%
X180544000Y-68828000D03*
D22*
X174244000Y-66548000D03*
D21*
X180544000Y-64268000D03*
%TD*%
D23*
%TO.C,R2*%
X158422559Y-60960000D03*
D24*
X166042559Y-60960000D03*
%TD*%
D11*
%TO.C,C17*%
X103197500Y-73025000D03*
X106322500Y-73025000D03*
%TD*%
D12*
%TO.C,U8*%
X95245000Y-107325000D03*
D13*
X92705000Y-107325000D03*
X90165000Y-107325000D03*
X87625000Y-107325000D03*
X85085000Y-107325000D03*
X82545000Y-107325000D03*
X80005000Y-107325000D03*
X77465000Y-107325000D03*
X74925000Y-107325000D03*
X72385000Y-107325000D03*
X72385000Y-114945000D03*
X74925000Y-114945000D03*
X77465000Y-114945000D03*
X80005000Y-114945000D03*
X82545000Y-114945000D03*
X85085000Y-114945000D03*
X87625000Y-114945000D03*
X90165000Y-114945000D03*
X92705000Y-114945000D03*
X95245000Y-114945000D03*
%TD*%
D12*
%TO.C,U12*%
X208502480Y-107325000D03*
D13*
X205962480Y-107325000D03*
X203422480Y-107325000D03*
X200882480Y-107325000D03*
X198342480Y-107325000D03*
X195802480Y-107325000D03*
X193262480Y-107325000D03*
X190722480Y-107325000D03*
X188182480Y-107325000D03*
X185642480Y-107325000D03*
X185642480Y-114945000D03*
X188182480Y-114945000D03*
X190722480Y-114945000D03*
X193262480Y-114945000D03*
X195802480Y-114945000D03*
X198342480Y-114945000D03*
X200882480Y-114945000D03*
X203422480Y-114945000D03*
X205962480Y-114945000D03*
X208502480Y-114945000D03*
%TD*%
D17*
%TO.C,C23*%
X144780000Y-110147500D03*
X144780000Y-107022500D03*
%TD*%
D25*
%TO.C,C2*%
X62957059Y-52253000D03*
X59832059Y-52253000D03*
%TD*%
D26*
%TO.C,U6*%
X33015000Y-66680000D03*
D27*
X33015000Y-69220000D03*
X33015000Y-71760000D03*
X33015000Y-74300000D03*
X33015000Y-76840000D03*
X33015000Y-79380000D03*
X33015000Y-81920000D03*
X33015000Y-84460000D03*
X33015000Y-87000000D03*
X33015000Y-89540000D03*
X33015000Y-92080000D03*
X33015000Y-94620000D03*
X33015000Y-97160000D03*
X33015000Y-99700000D03*
X33015000Y-102240000D03*
X33015000Y-104780000D03*
X33015000Y-107320000D03*
X33015000Y-109860000D03*
X33015000Y-112400000D03*
X33015000Y-114940000D03*
X48255000Y-114940000D03*
X48255000Y-112400000D03*
X48255000Y-109860000D03*
X48255000Y-107320000D03*
X48255000Y-104780000D03*
X48255000Y-102240000D03*
X48255000Y-99700000D03*
X48255000Y-97160000D03*
X48255000Y-94620000D03*
X48255000Y-92080000D03*
X48255000Y-89540000D03*
X48255000Y-87000000D03*
X48255000Y-84460000D03*
X48255000Y-81920000D03*
X48255000Y-79380000D03*
X48255000Y-76840000D03*
X48255000Y-74300000D03*
X48255000Y-71760000D03*
X48255000Y-69220000D03*
X48255000Y-66680000D03*
%TD*%
D20*
%TO.C,REF\u002A\u002A*%
X28448000Y-45466000D03*
X28448000Y-45466000D03*
%TD*%
D28*
%TO.C,U2*%
X59006500Y-76266000D03*
X59006500Y-78166000D03*
X60881500Y-77216000D03*
%TD*%
D10*
%TO.C,C12*%
X55880000Y-112102500D03*
X55880000Y-115227500D03*
%TD*%
D12*
%TO.C,U7*%
X206370000Y-76830000D03*
D13*
X203830000Y-76830000D03*
X201290000Y-76830000D03*
X198750000Y-76830000D03*
X196210000Y-76830000D03*
X193670000Y-76830000D03*
X191130000Y-76830000D03*
X188590000Y-76830000D03*
X186050000Y-76830000D03*
X183510000Y-76830000D03*
X180970000Y-76830000D03*
X178430000Y-76830000D03*
X175890000Y-76830000D03*
X173350000Y-76830000D03*
X170810000Y-76830000D03*
X168270000Y-76830000D03*
X165730000Y-76830000D03*
X163190000Y-76830000D03*
X160650000Y-76830000D03*
X158110000Y-76830000D03*
X158110000Y-92070000D03*
X160650000Y-92070000D03*
X163190000Y-92070000D03*
X165730000Y-92070000D03*
X168270000Y-92070000D03*
X170810000Y-92070000D03*
X173350000Y-92070000D03*
X175890000Y-92070000D03*
X178430000Y-92070000D03*
X180970000Y-92070000D03*
X183510000Y-92070000D03*
X186050000Y-92070000D03*
X188590000Y-92070000D03*
X191130000Y-92070000D03*
X193670000Y-92070000D03*
X196210000Y-92070000D03*
X198750000Y-92070000D03*
X201290000Y-92070000D03*
X203830000Y-92070000D03*
X206370000Y-92070000D03*
%TD*%
D17*
%TO.C,C21*%
X129540000Y-63577000D03*
X129540000Y-60452000D03*
%TD*%
D10*
%TO.C,C6*%
X78359000Y-72097500D03*
X78359000Y-75222500D03*
%TD*%
D29*
%TO.C,X1*%
X120396000Y-68072000D03*
D23*
X120396000Y-60452000D03*
X112776000Y-60452000D03*
X112776000Y-68072000D03*
%TD*%
D30*
%TO.C,J2*%
X172182000Y-50564000D03*
X174782000Y-50564000D03*
X170082000Y-50564000D03*
X176882000Y-50564000D03*
X170082000Y-53064000D03*
X176882000Y-53064000D03*
D31*
X166732000Y-47564000D03*
X173482000Y-46764000D03*
X180232000Y-47564000D03*
%TD*%
D32*
%TO.C,J5*%
X86360000Y-45720000D03*
D33*
X88900000Y-45720000D03*
X91440000Y-45720000D03*
X93980000Y-45720000D03*
X96520000Y-45720000D03*
X99060000Y-45720000D03*
X101600000Y-45720000D03*
X104140000Y-45720000D03*
X106680000Y-45720000D03*
X109220000Y-45720000D03*
X111760000Y-45720000D03*
X114300000Y-45720000D03*
X116840000Y-45720000D03*
X119380000Y-45720000D03*
X121920000Y-45720000D03*
X124460000Y-45720000D03*
%TD*%
D17*
%TO.C,C24*%
X140970000Y-110147500D03*
X140970000Y-107022500D03*
%TD*%
D34*
%TO.C,U9*%
X196596000Y-63565000D03*
X195326000Y-63565000D03*
X194056000Y-63565000D03*
X192786000Y-63565000D03*
X191516000Y-63565000D03*
X190246000Y-63565000D03*
X188976000Y-63565000D03*
X188976000Y-68515000D03*
X190246000Y-68515000D03*
X191516000Y-68515000D03*
X192786000Y-68515000D03*
X194056000Y-68515000D03*
X195326000Y-68515000D03*
X196596000Y-68515000D03*
%TD*%
D10*
%TO.C,C20*%
X93228000Y-64741500D03*
X93228000Y-67866500D03*
%TD*%
D17*
%TO.C,C25*%
X181837480Y-110147500D03*
X181837480Y-107022500D03*
%TD*%
D12*
%TO.C,U11*%
X139065000Y-76835000D03*
D13*
X136525000Y-76835000D03*
X133985000Y-76835000D03*
X131445000Y-76835000D03*
X128905000Y-76835000D03*
X126365000Y-76835000D03*
X123825000Y-76835000D03*
X121285000Y-76835000D03*
X118745000Y-76835000D03*
X116205000Y-76835000D03*
X113665000Y-76835000D03*
X111125000Y-76835000D03*
X108585000Y-76835000D03*
X106045000Y-76835000D03*
X106045000Y-92075000D03*
X108585000Y-92075000D03*
X111125000Y-92075000D03*
X113665000Y-92075000D03*
X116205000Y-92075000D03*
X118745000Y-92075000D03*
X121285000Y-92075000D03*
X123825000Y-92075000D03*
X126365000Y-92075000D03*
X128905000Y-92075000D03*
X131445000Y-92075000D03*
X133985000Y-92075000D03*
X136525000Y-92075000D03*
X139065000Y-92075000D03*
%TD*%
D11*
%TO.C,C7*%
X77812500Y-98420000D03*
X80937500Y-98420000D03*
%TD*%
%TO.C,C14*%
X203532500Y-69215000D03*
X206657500Y-69215000D03*
%TD*%
%TO.C,C18*%
X103197500Y-69215000D03*
X106322500Y-69215000D03*
%TD*%
D17*
%TO.C,C3*%
X106680000Y-110147500D03*
X106680000Y-107022500D03*
%TD*%
D20*
%TO.C,REF\u002A\u002A*%
X28448000Y-118618000D03*
X28448000Y-118618000D03*
%TD*%
D25*
%TO.C,C9*%
X175806500Y-71628000D03*
X172681500Y-71628000D03*
%TD*%
D17*
%TO.C,C4*%
X102870000Y-110147500D03*
X102870000Y-107022500D03*
%TD*%
D25*
%TO.C,C10*%
X175806500Y-61468000D03*
X172681500Y-61468000D03*
%TD*%
D17*
%TO.C,C26*%
X178027480Y-110147500D03*
X178027480Y-107022500D03*
%TD*%
D12*
%TO.C,U13*%
X171445000Y-107325000D03*
D13*
X168905000Y-107325000D03*
X166365000Y-107325000D03*
X163825000Y-107325000D03*
X161285000Y-107325000D03*
X158745000Y-107325000D03*
X156205000Y-107325000D03*
X153665000Y-107325000D03*
X151125000Y-107325000D03*
X148585000Y-107325000D03*
X148585000Y-114945000D03*
X151125000Y-114945000D03*
X153665000Y-114945000D03*
X156205000Y-114945000D03*
X158745000Y-114945000D03*
X161285000Y-114945000D03*
X163825000Y-114945000D03*
X166365000Y-114945000D03*
X168905000Y-114945000D03*
X171445000Y-114945000D03*
%TD*%
D18*
%TO.C,REF\u002A\u002A*%
X210312000Y-119126000D03*
%TD*%
D11*
%TO.C,C13*%
X203532500Y-73025000D03*
X206657500Y-73025000D03*
%TD*%
D23*
%TO.C,R1*%
X145214559Y-60688978D03*
D24*
X152834559Y-60688978D03*
%TD*%
D35*
%TO.C,J4*%
X193196070Y-48006000D03*
X194296070Y-48006000D03*
X195396070Y-48006000D03*
X196496070Y-48006000D03*
X197596070Y-48006000D03*
X198696070Y-48006000D03*
X199796070Y-48006000D03*
X200896070Y-48006000D03*
D36*
X203271070Y-45406000D03*
X189521070Y-53706000D03*
X189521070Y-45406000D03*
X203271070Y-53706000D03*
%TD*%
D30*
%TO.C,J3*%
X150592000Y-50564000D03*
X153192000Y-50564000D03*
X148492000Y-50564000D03*
X155292000Y-50564000D03*
X148492000Y-53064000D03*
X155292000Y-53064000D03*
D31*
X145142000Y-47564000D03*
X151892000Y-46764000D03*
X158642000Y-47564000D03*
%TD*%
D17*
%TO.C,C22*%
X125730000Y-63577000D03*
X125730000Y-60452000D03*
%TD*%
D10*
%TO.C,C11*%
X52070000Y-112102500D03*
X52070000Y-115227500D03*
%TD*%
D23*
%TO.C,R3*%
X28956000Y-76708000D03*
D24*
X28956000Y-69088000D03*
%TD*%
D37*
%TO.C,U1*%
X56314559Y-48443000D03*
D38*
X58854559Y-48443000D03*
X61394559Y-48443000D03*
%TD*%
M02*
